<svg width="49" height="45" viewBox="0 0 49 45" fill="none" xmlns="http://www.w3.org/2000/svg">
<g clip-path="url(#clip0_5975_563)">
<path d="M41.8522 9.99473V0.950195H1.58887V43.3417H41.8522V35.2662" fill="white"/>
<path d="M41.8522 9.99473V0.950195H1.58887V43.3417H41.8522V35.2662" stroke="black" stroke-width="1.90011" stroke-miterlimit="10"/>
<path d="M1.58887 7.01123H41.8522" stroke="black" stroke-width="1.90011" stroke-miterlimit="10"/>
<path d="M4.60938 3.97119H6.56649" stroke="black" stroke-width="1.90011" stroke-miterlimit="10"/>
<path d="M8.54395 3.97119H10.6531" stroke="black" stroke-width="1.90011" stroke-miterlimit="10"/>
<path d="M12.6289 3.97119H14.586" stroke="black" stroke-width="1.90011" stroke-miterlimit="10"/>
<path d="M20.7426 11.9897H43.886C46.0521 11.9897 47.8952 13.7759 47.8952 16.037V29.2238C47.8952 31.4089 46.0521 33.271 43.886 33.271H28.7801L23.4788 38.6103C22.8328 39.2564 21.7877 38.7813 21.7877 37.8883V33.271H20.7426C18.5005 33.271 16.7334 31.4089 16.7334 29.2238V16.037C16.7334 13.7759 18.5005 11.9897 20.7426 11.9897Z" fill="white" stroke="black" stroke-width="1.90011" stroke-linejoin="round"/>
<path d="M32.7698 15.5618L34.841 20.141L39.7052 20.6351L36.114 24.3403L37.0831 29.0906L32.7698 26.9244L28.5326 29.0906L29.4066 24.3403L25.8154 20.6351L30.6797 20.141L32.7698 15.5618Z" stroke="black" stroke-width="1.90011" stroke-linejoin="round"/>
</g>
<defs>
<clipPath id="clip0_5975_563">
<rect width="48.2248" height="44.2916" fill="white" transform="translate(0.638672)"/>
</clipPath>
</defs>
</svg>
