<svg width="45" height="42" viewBox="0 0 45 42" fill="none" xmlns="http://www.w3.org/2000/svg">
<g clip-path="url(#clip0_5975_708)">
<path d="M16.8046 21.1056C21.205 21.1056 24.9079 17.7181 24.9079 13.0022V8.95055C24.9079 4.21804 21.1884 0.847168 16.8046 0.847168C12.4208 0.847168 8.70117 4.23465 8.70117 8.95055V13.0022C8.70117 17.7348 12.4208 21.1056 16.8046 21.1056Z" fill="white" stroke="black" stroke-width="1.66053" stroke-miterlimit="10"/>
<path d="M33.0111 41.1313V34.4726C33.0111 28.478 22.2841 25.157 16.9206 25.157C11.5571 25.157 0.830078 28.4946 0.830078 34.4726V41.1313" fill="white"/>
<path d="M33.0111 41.1313V34.4726C33.0111 28.478 22.2841 25.157 16.9206 25.157C11.5571 25.157 0.830078 28.4946 0.830078 34.4726V41.1313" stroke="black" stroke-width="1.66053" stroke-miterlimit="10"/>
<path d="M25.5381 32.0321C25.5381 27.0007 29.6064 22.9324 34.6378 22.9324C37.0456 22.9324 39.3703 23.8955 41.0806 25.6058C42.791 27.3162 43.7541 29.6243 43.7541 32.0487C43.7541 37.0801 39.6858 41.1484 34.6544 41.1484C29.623 41.1484 25.5547 37.0801 25.5547 32.0487L25.5381 32.0321Z" fill="white" stroke="black" stroke-width="1.66053" stroke-miterlimit="10"/>
<path d="M34.5723 27.1167V36.9138" stroke="black" stroke-width="1.66053" stroke-miterlimit="10"/>
<path d="M39.5521 31.9487H29.5723" stroke="black" stroke-width="1.66053" stroke-miterlimit="10"/>
</g>
<defs>
<clipPath id="clip0_5975_708">
<rect width="44.5852" height="41.9616" fill="white"/>
</clipPath>
</defs>
</svg>
