<svg width="44" height="44" viewBox="0 0 44 44" fill="none" xmlns="http://www.w3.org/2000/svg">
<g clip-path="url(#clip0_5975_747)">
<path d="M0.956055 21.9332C0.956055 10.3451 10.3069 0.956055 21.8376 0.956055C27.3831 0.956055 32.6799 3.17424 36.6 7.09431C40.5201 11.0335 42.7191 16.3686 42.7191 21.9141C42.7191 33.5022 33.3683 42.8913 21.8376 42.8913C10.3069 42.8913 0.956055 33.5022 0.956055 21.9332Z" fill="white" stroke="black" stroke-width="1.91223" stroke-miterlimit="10"/>
<path d="M21.7611 21.914C24.2853 21.914 26.4461 19.9636 26.4461 17.2291V14.8961C26.4461 12.1617 24.3044 10.2112 21.7611 10.2112C19.2179 10.2112 17.0762 12.1617 17.0762 14.8961V17.2291C17.0762 19.9636 19.2179 21.914 21.7611 21.914Z" stroke="black" stroke-width="1.91223" stroke-miterlimit="10"/>
<path d="M31.1121 33.464V29.6204C31.1121 26.1593 24.9165 24.2471 21.8378 24.2471C18.7591 24.2471 12.5635 26.1593 12.5635 29.6204V33.464" stroke="black" stroke-width="1.91223" stroke-miterlimit="10"/>
</g>
<defs>
<clipPath id="clip0_5975_747">
<rect width="43.6753" height="43.8474" fill="white"/>
</clipPath>
</defs>
</svg>
