<svg width="57" height="40" viewBox="0 0 57 40" fill="none" xmlns="http://www.w3.org/2000/svg">
<g clip-path="url(#clip0_5975_720)">
<path d="M12.9863 2.62378L1.46777 14.2312L4.18062 16.5216L6.18191 20.0349L19.3904 32.9321L22.4813 37.3349L25.8834 38.7358L28.0848 36.4455L30.2863 35.645H33.6884L35.4896 33.0433L37.6021 33.9327L40.8931 31.7313V29.6411L43.0945 29.5299L44.8956 27.9289L45.6072 24.4378L44.8512 22.6588L32.0874 10.3176L21.6807 11.1181L12.9863 2.62378Z" fill="white"/>
<path d="M19.9688 34.4668L20.7248 35.2228L22.5482 37.0462C25.3277 39.8258 27.8849 37.78 29.2414 35.4674C31.5984 36.6015 34.4002 35.6675 35.6232 33.3549C38.8253 34.9337 41.6493 31.665 41.427 29.975C43.9397 29.8861 45.8965 27.7514 45.7853 25.2386C45.7408 24.2825 45.4073 23.3708 44.8291 22.637" stroke="black" stroke-width="2.22365" stroke-linejoin="round"/>
<path d="M43.5822 0.822754C42.0701 2.22365 40.4913 3.51337 38.8236 4.71414C37.5338 4.91427 31.6856 2.17918 30.5071 1.89011C29.3286 1.60103 17.6767 5.31452 16.8094 6.7599C15.9422 8.18303 19.3889 11.5185 22.7466 11.096C26.1043 10.6735 31.063 8.8946 32.4639 10.34C34.8432 12.7193 41.6254 19.8572 44.8496 22.6812C47.5403 25.0605 55.4787 12.7415 55.4787 12.7415" fill="white"/>
<path d="M43.5822 0.822754C42.0701 2.22365 40.4913 3.51337 38.8236 4.71414C37.5338 4.91427 31.6856 2.17918 30.5071 1.89011C29.3286 1.60103 17.6767 5.31452 16.8094 6.7599C15.9422 8.18303 19.3889 11.5185 22.7466 11.096C26.1043 10.6735 31.063 8.8946 32.4639 10.34C34.8432 12.7193 41.6254 19.8572 44.8496 22.6812C47.5403 25.0605 55.4787 12.7415 55.4787 12.7415" stroke="black" stroke-width="2.22365" stroke-linejoin="round"/>
<path d="M15.655 35.4452C16.589 36.3791 18.0788 36.3791 19.0127 35.4452L21.1252 33.3327C21.948 32.0652 21.5699 30.353 20.2802 29.5525C19.3685 28.9744 18.2345 28.9744 17.3228 29.5525C18.1233 28.2628 17.723 26.5728 16.4111 25.7723C15.5216 25.2164 14.4098 25.2386 13.5203 25.7723C14.3208 24.4826 13.9206 22.7704 12.6309 21.9699C11.7414 21.4139 10.6074 21.4139 9.71789 21.9699C10.5184 20.6801 10.1181 18.9679 8.82843 18.1674C7.93897 17.6115 6.80491 17.6115 5.91545 18.1674L3.80299 20.2799C2.86906 21.2138 2.86906 22.7037 3.80299 23.6376L15.6106 35.4229L15.655 35.4452Z" fill="white" stroke="black" stroke-width="2.22365" stroke-linejoin="round"/>
<path d="M0.800781 13.8977L3.33574 16.5216C3.66929 17.5223 4.20296 18.4339 4.87006 19.2345" stroke="black" stroke-width="2.22365" stroke-linejoin="round"/>
<path d="M16.9664 6.55971L12.6748 2.26807" stroke="black" stroke-width="2.22365" stroke-linejoin="round"/>
<path d="M9.76112 21.9475L6.02539 25.7944" stroke="black" stroke-width="2.22365" stroke-linejoin="round"/>
<path d="M9.76112 21.9475L6.02539 25.7944" stroke="black" stroke-width="2.22365" stroke-linejoin="round"/>
<path d="M13.5416 25.7498L9.82812 29.5967" stroke="black" stroke-width="2.22365" stroke-linejoin="round"/>
<path d="M17.3432 29.53L13.6074 33.3769" stroke="black" stroke-width="2.22365" stroke-linejoin="round"/>
<path d="M29.2395 35.4676L25.3926 31.5762" stroke="black" stroke-width="2.22365" stroke-linejoin="round"/>
<path d="M35.6224 33.3551L28.8848 26.0837" stroke="black" stroke-width="2.22365" stroke-linejoin="round"/>
<path d="M41.4055 29.9746L33.4004 21.6804" stroke="black" stroke-width="2.22365" stroke-linejoin="round"/>
</g>
<defs>
<clipPath id="clip0_5975_720">
<rect width="56.414" height="39.492" fill="white"/>
</clipPath>
</defs>
</svg>
