<svg width="21" height="19" viewBox="0 0 21 19" fill="none" xmlns="http://www.w3.org/2000/svg">
<path d="M19.4727 0.405273C19.6911 0.395593 19.9075 0.450429 20.0947 0.563477C20.2891 0.685946 20.4374 0.867973 20.5186 1.08105L20.5488 1.17383C20.6017 1.36862 20.6085 1.57726 20.5762 1.81445L20.5312 2.0625L20.5293 2.07324L17.5195 17.4893L17.5039 17.5312L17.5029 17.5332C17.5025 17.5344 17.5014 17.5367 17.5 17.54C17.4967 17.5479 17.4911 17.562 17.4824 17.5801C17.4651 17.6164 17.4371 17.6704 17.3975 17.7344C17.3371 17.8317 17.2519 17.9475 17.1396 18.0586L17.0176 18.167V18.168C16.7184 18.4086 16.1166 18.5778 15.4873 18.3545L15.3604 18.3047L15.3574 18.3027L15.3125 18.2832L11.4512 15.3213L11.1836 15.1152L10.9336 15.3428L8.61328 17.4551L8.60449 17.4629L8.59766 17.4678C8.58968 17.4732 8.57517 17.4827 8.55566 17.4941C8.51601 17.5175 8.45646 17.5486 8.38281 17.5752C8.23458 17.6286 8.04454 17.6589 7.83887 17.5967L7.8125 17.5889L7.78516 17.585L7.75879 17.5801C7.75697 17.5798 7.75537 17.5793 7.75391 17.5791C7.7523 17.5784 7.75068 17.5778 7.74902 17.5771L7.75098 17.5713C7.71408 17.5604 7.67893 17.5444 7.64551 17.5254C7.61049 17.5026 7.57756 17.4778 7.54688 17.4492L7.4541 17.3457L7.44727 17.3369L7.34863 17.1973C7.28402 17.0924 7.22031 16.9615 7.1543 16.7881L7.05371 16.4932L7.05273 16.4922L5.60547 11.7793L5.54395 11.583L5.34863 11.5166L1.40332 10.1875L1.36621 10.1748C1.34413 10.1658 1.31258 10.1534 1.27539 10.1357C1.23328 10.1158 1.1844 10.0905 1.13184 10.0605L0.96582 9.95508C0.745172 9.79813 0.495486 9.55484 0.423828 9.17676L1.68262 9.42871L6.1748 10.9414L6.24707 11.2998L6.74121 10.9932L15.3877 5.63574L8.56055 12.001L8.45898 12.0957L8.4375 12.2334L7.83105 16.1035L7.65332 17.2383L8.50293 16.4648L11.1367 14.0625L15.6436 17.5186L15.6875 17.5527L15.7402 17.5732C15.8779 17.6279 16.0206 17.6738 16.1602 17.6709C16.3014 17.6679 16.4016 17.6168 16.4648 17.5742L16.5156 17.5361H16.5166C16.5802 17.4854 16.6257 17.4322 16.6592 17.3848C16.6855 17.3475 16.7165 17.2927 16.707 17.3086L16.7422 17.249L16.7559 17.1807L19.71 2.0625H19.7676V1.6582L19.3633 1.64453V1.25488C19.3583 1.25488 19.3506 1.25479 19.3438 1.25488C19.3372 1.25497 19.3225 1.25541 19.3057 1.25684C19.2871 1.25842 19.2592 1.2615 19.2266 1.27051C19.192 1.28004 19.1649 1.29241 19.1465 1.30176C19.141 1.30452 19.1362 1.30676 19.1328 1.30859L19.126 1.31152L16.168 2.54883H16.167L10.2061 5.06055C8.06657 5.96125 5.94474 6.85572 4.35742 7.52441C3.56372 7.85878 2.90295 8.13658 2.44141 8.33105C2.21074 8.42825 2.02969 8.50463 1.90625 8.55664C1.84465 8.5826 1.7975 8.60278 1.76562 8.61621C1.75328 8.62141 1.74301 8.62568 1.73535 8.62891L1.71387 8.63672L1.69043 8.64551L1.66797 8.65625L1.65625 8.66211L0.407227 9.07617C0.388328 8.85874 0.466419 8.63644 0.567383 8.48828L0.566406 8.4873C0.637052 8.38417 0.723517 8.29296 0.821289 8.21582L0.923828 8.14355L0.93457 8.13574C1.0613 8.04889 1.18815 7.98428 1.2832 7.94141C1.33005 7.92029 1.36823 7.90517 1.39355 7.89551L1.39453 7.89453L1.39551 7.89551L1.44531 7.87695L1.44434 7.875C1.44755 7.87364 1.45147 7.87262 1.45508 7.87109C1.48693 7.85766 1.5342 7.83746 1.5957 7.81152C1.71908 7.7595 1.90036 7.68312 2.13086 7.58594C2.59207 7.39148 3.25183 7.11358 4.04492 6.7793L9.89258 4.31543L15.8545 1.80371L15.8555 1.80469C17.3943 1.15926 18.4396 0.720438 18.7695 0.585938H18.7725L18.8477 0.554688C19.0465 0.471398 19.2576 0.421135 19.4727 0.405273ZM7.81543 17.6084C7.82084 17.6113 7.82528 17.6135 7.82812 17.6152C7.82962 17.6161 7.83103 17.6175 7.83203 17.6182L7.83008 17.6172C7.8273 17.6154 7.82216 17.6124 7.81543 17.6084Z" fill="#01323F" stroke="#01323F" stroke-width="0.807878"/>
</svg>
