<svg width="210" height="132" viewBox="0 0 210 132" fill="none" xmlns="http://www.w3.org/2000/svg">
<g clip-path="url(#clip0_2981_2)">
<path d="M76.3073 9.48489H76.0193C76.2287 9.17073 76.2287 8.98746 76.3073 9.48489Z" fill="#002E3D"/>
<path d="M76.306 9.485C86.595 -2.68899 112.828 -2.71517 124.688 8.09743C126.39 10.1919 129.06 12.3125 130.552 14.5117C132.83 17.9152 134.427 21.659 136.233 25.3243C136.233 25.3766 137.019 24.9316 137.071 25.0363L141.312 43.1271C141.836 44.122 140.815 46.295 140.815 46.7139C140.841 50.2221 141.26 53.6517 141.024 57.3956C140.841 60.2231 139.532 62.9982 140.475 65.7472L139.925 64.9094C140.344 66.2446 140.056 67.318 139.846 68.6271C138.38 77.1358 135.762 85.9324 132.228 93.7866C131.652 95.0433 127.829 101.327 127.777 101.772C127.777 101.876 128.798 103.316 128.903 103.761C132.202 103.919 135.815 104.573 139.139 104.364C142.203 104.18 145.082 103.369 148.119 103.028L147.57 102.479C149.036 102.74 150.502 102.269 151.863 101.824C153.617 101.248 160.189 98.63 161.288 97.9494C161.367 97.897 161.917 96.3262 161.995 96.2738C162.65 95.7764 162.493 97.1116 162.833 96.8236C162.912 96.7712 163.618 95.2004 163.697 95.1218C163.749 95.0695 164.273 95.4622 164.535 95.2789C165.215 94.7291 166.341 94.0223 166.786 93.6557C166.917 93.551 166.76 92.9227 166.812 92.8703C166.917 92.7918 167.519 93.1845 167.676 93.0274C167.938 92.7918 168.514 91.2995 169.064 90.802C170.137 89.781 170.504 89.3097 171.394 88.3934C172.939 86.8226 175.504 84.9376 177.259 82.9217C177.311 82.8693 177.258 81.6126 177.285 81.5603C177.363 81.4817 178.201 81.7174 178.358 81.5079C179.772 79.78 181.343 77.031 182.73 75.146C182.94 74.8319 183.542 74.9628 183.725 74.701C183.935 74.413 184.092 72.9469 184.406 72.528C184.458 72.4494 185.348 72.816 185.479 72.6327C185.61 72.4494 186.605 69.5957 187.024 68.9412C187.783 67.7369 188.281 68.3129 188.307 68.2605C190.663 64.412 193.281 58.626 195.402 54.411C195.402 54.411 195.873 54.699 195.899 54.6204C197.47 51.4002 198.36 47.5255 199.774 44.2005C199.905 43.8864 200.455 44.2529 200.481 44.2005C200.638 43.8602 200.481 42.237 200.769 41.661V43.6245L202.732 41.085C201.894 44.5932 203.177 42.0537 203.57 42.4988C203.832 42.8129 203.491 44.698 203.57 44.7503C203.832 44.9336 206.083 43.0486 205.56 47.5778C206.895 46.0332 206.057 48.6251 206.136 48.7036C206.214 48.7821 206.869 48.2847 206.974 48.4156C207.366 48.8607 206.869 50.798 206.974 50.9551C207.052 51.0598 207.733 50.5362 207.811 50.6671C208.073 51.086 207.68 54.411 207.523 55.1964L208.649 54.0706V56.6101C209.251 56.6887 208.728 55.6938 209.068 55.7724C209.801 55.9294 208.283 61.8986 208.021 62.7626C207.811 63.3909 205.638 66.4541 205.586 66.7159C205.481 67.4227 206.188 68.47 205.56 70.643C205.115 72.1614 203.989 72.7636 203.937 72.8945C203.046 74.8319 202.235 77.5023 201.318 79.2564C201.161 77.895 201.083 79.204 201.031 79.2564C200.585 79.8847 200.402 80.6701 200.324 80.6701C199.905 80.7225 200.533 79.2302 199.905 79.2564C199.067 83.7333 194.512 88.4981 191.579 92.2682C187.966 96.9021 185.558 100.018 180.819 103.866C178.986 105.358 176.918 107.034 174.352 108.395C173.174 109.024 170.818 109.39 169.928 109.757C169.876 109.757 169.98 110.568 169.928 110.595C165.111 112.48 157.44 113.815 152.256 114.679C151.863 114.757 151.889 115.412 151.837 115.412C151.34 115.49 151.68 114.836 151.444 114.862C149.428 115.124 147.439 115.464 145.397 115.517C140.187 115.674 134.401 115.359 129.426 114.836C129.165 114.81 129.348 114.286 129.086 114.26C128.301 114.181 129.086 114.914 128.117 114.81C127.987 114.81 125.971 113.71 125.84 113.71C124.845 113.579 125.578 114.338 125.002 114.26C125.002 114.26 125.054 113.789 124.871 113.762C123.353 113.605 120.551 113.108 119.242 113.16C119.059 113.16 119.085 113.684 118.928 113.736C118.326 113.893 117.698 112.27 118.221 114.286C117.226 112.611 116.205 115.255 115.97 115.412C115.577 115.647 115.786 114.574 115.42 114.862C114.058 115.909 112.435 117.768 110.629 119.129C110.524 119.208 110.655 119.863 110.576 119.915C110.524 119.941 109.817 119.627 109.424 119.915C108.403 120.674 107.644 121.905 106.518 122.612C102.356 125.256 98.0883 126.931 93.3757 128.397C90.653 129.261 87.328 130.073 83.5842 130.597C83.0344 130.675 83.2177 131.173 83.1653 131.199C82.6679 131.251 83.1391 130.57 82.4846 130.623C81.2279 130.728 79.3429 131.173 78.2433 131.199C77.9292 131.199 78.2957 130.649 77.7983 130.649C77.7197 130.649 78.0339 131.225 77.5103 131.199C77.4841 131.199 77.6935 130.649 77.0914 130.623C76.1227 130.57 76.6463 131.277 75.6776 131.225C75.5991 131.225 75.5467 130.675 75.3373 130.675C73.7403 130.597 72.1956 130.021 70.7295 130.937L71.0175 129.942C69.4728 129.471 63.5822 129.314 62.6659 128.947C62.3517 128.816 63.3466 127.926 61.671 127.821C61.671 127.821 61.4354 127.219 61.383 127.821C60.8332 127.638 59.7074 128.109 59.3933 126.984L59.9693 126.696C58.5293 126.486 56.461 125.989 55.152 125.413C54.8902 125.282 54.9164 124.523 54.8379 124.47C54.3404 124.235 53.5812 124.601 53.0837 124.366C52.8743 124.261 51.958 123.214 51.6176 123.057C51.4344 122.978 50.1777 123.842 50.9108 122.742L46.9575 121.302L47.7953 120.465H46.0935C47.2193 118.972 46.0935 120.177 45.4128 119.889C44.6798 119.601 45.3081 118.815 45.2557 118.763C45.0201 118.632 44.2609 119.26 43.8158 118.92C43.4493 118.632 43.6587 117.794 43.5016 117.663C43.3184 117.532 42.6639 117.663 42.2711 117.349C41.3025 116.564 40.8574 115.621 40.36 115.15C39.208 114.103 36.3281 111.851 34.6526 110.019C34.5479 109.888 34.862 109.364 34.3908 108.84C33.841 108.212 33.3697 108.84 32.5319 107.793C29.7568 104.416 27.5576 99.6773 24.9134 95.9858C24.5992 95.5407 23.3164 95.4622 23.4734 93.6034L22.8975 94.7291C22.2953 94.7815 22.7666 93.7605 22.6095 93.6034C21.9026 92.7918 19.9391 108.526 19.782 109.574C19.0751 114.941 20.8292 120.857 14.6506 123.397C13.1583 123.999 6.7702 123.659 5.64444 122.978C5.0161 122.585 7.39854 122.742 4.0736 122.088C3.89033 122.062 3.96888 121.59 3.94269 121.59C3.44526 121.433 3.94269 122.481 3.10491 122.14C3.07873 122.14 3.3929 121.59 3.1311 121.433C2.71221 121.172 1.92679 121.433 1.71734 121.276C1.58644 121.172 1.7697 120.517 1.71734 120.465C1.69116 120.439 1.19373 120.779 1.16755 120.753C1.06283 120.648 1.27227 119.81 1.16755 119.627C1.11519 119.522 0.408309 120.02 0.329767 119.915C0.172684 119.679 0.591574 114.81 0.696296 114.181C0.801019 113.474 1.97915 111.013 2.05769 110.464C2.79075 105.62 3.3929 99.9914 3.99506 95.9596C4.41395 93.1321 4.70193 90.2523 5.147 87.4247L5.6968 87.5818C5.40881 81.6912 7.21527 75.4078 7.39854 69.4648C7.47708 67.2395 6.22041 52.7354 6.87493 52.1594C6.97965 52.0547 9.02174 51.5573 9.80716 51.0075C10.514 50.5101 10.7758 49.1487 11.3518 48.8607C11.6922 48.7036 17.2686 48.3632 18.0017 48.4418C20.1747 48.6512 20.8292 49.4366 22.2953 49.8294C22.688 49.9341 23.0022 49.2534 23.2116 49.3057C23.264 49.3057 23.1593 50.1435 23.2116 50.1435C23.552 50.2744 24.2065 49.777 25.0443 50.1435C27.5838 51.1908 29.9401 53.259 32.4796 54.3848C40.5432 57.9977 49.6803 60.1969 57.6654 63.6266C60.2049 64.7261 62.4564 66.4802 64.7603 67.4227C65.0483 68.3129 63.9487 67.894 63.9225 67.9987C63.7393 68.6794 64.42 69.9884 63.9225 71.2189C62.8229 73.7846 60.6761 72.6065 59.2886 72.816C47.3764 74.5177 46.4339 69.491 36.9565 67.6584C36.3805 67.5536 34.3908 67.606 34.0766 67.9725C33.2912 68.8889 38.7106 88.917 40.1767 91.1686C40.1505 90.9068 39.9934 89.9643 40.4647 90.0428L41.0407 92.2943C40.7788 92.0849 40.4123 91.4827 40.2029 91.1686C40.36 92.53 41.1454 93.0274 41.3286 94.2841L41.7475 93.1583C44.5489 99.0489 48.0571 104.809 52.7696 109.259L53.1885 108.71C56.2778 112.506 61.7234 114.679 65.6243 117.742C65.4672 117.009 69.0539 118.423 68.4518 118.58H71.2793L70.7295 119.156C72.6407 119.182 74.5257 119.653 76.4631 119.444C76.5678 119.444 76.7772 118.789 77.6935 118.606C78.2957 118.475 79.3429 118.999 79.5 118.868C79.6309 118.763 77.5365 116.564 80.6258 118.58L80.076 117.742C82.3275 118.239 83.846 116.066 85.731 116.04L85.443 115.49C88.8203 114.914 92.8521 111.799 95.732 109.574C96.0462 109.312 95.8629 108.736 95.9153 108.71C96.0462 108.605 98.2453 108.343 98.7428 107.558C98.8213 107.427 99.0308 104.547 99.0046 104.39C98.9784 104.233 97.0672 102.662 96.7269 102.348C95.3655 100.934 92.6165 99.1275 90.9409 97.321C90.7315 97.1116 91.2289 96.588 91.098 96.5356C90.8624 96.4832 90.1555 97.1639 89.9723 97.1116C89.8414 97.0592 88.9512 94.8339 88.7679 94.6506C86.7259 92.6347 83.9245 91.2471 82.7988 88.2363C78.9764 85.3826 76.6725 81.1938 74.3424 77.1096C74.2639 76.9787 73.5832 77.1096 73.557 77.0572C73.4523 76.874 73.9759 76.1147 73.845 75.9314C73.7403 75.8005 73.0858 76.298 73.0072 76.2194C72.8763 76.0623 73.3476 75.3555 73.2952 75.2508C72.3789 73.4967 71.6982 72.2138 71.0437 70.2764C71.6196 70.1455 71.0437 70.0146 71.0437 69.9884C67.1689 57.3694 66.0693 46.5568 67.9544 33.1261C68.1376 31.8694 69.3681 30.2986 68.5041 29.1467L69.0801 29.2776C69.2896 28.1518 68.4518 26.0835 69.9179 27.026C68.766 25.2196 69.8655 26.3715 70.2059 25.6123C70.2321 25.5337 68.5303 25.5337 70.4939 24.853L73.3214 17.4177C74.2377 18.0461 73.7926 17.1821 73.8974 16.292L74.4471 16.8418L74.7351 15.716C73.1905 16.3181 72.248 18.7268 71.6196 20.2191C70.5462 18.0722 74.0283 15.428 74.709 13.9881C74.8922 13.6215 74.1068 13.1765 74.3424 12.679C74.7875 11.7889 75.5991 10.3228 76.1489 9.51118C76.2536 10.0348 76.2536 9.72063 76.4369 9.51118L76.306 9.485ZM87.328 71.3498C88.2443 73.2348 87.328 72.2662 87.328 72.3447C87.5636 72.8683 88.1396 72.4232 88.1658 72.5018C88.2443 72.7112 87.8516 73.1301 87.9302 73.3134C87.9302 73.3657 88.3491 73.3134 88.6109 73.8894C88.8465 74.3868 88.4276 74.858 88.4538 74.9104C88.5323 75.0937 89.0036 74.7271 89.0036 74.7533C89.1083 74.9628 88.7156 75.434 88.7418 75.4602C88.7941 75.5387 89.7628 75.8791 90.1555 76.586C90.2341 76.7169 88.9512 76.4812 90.2864 77.5808L90.7053 77.0049C90.7053 78.0259 91.3337 79.5444 91.8573 80.3822C91.8834 80.4345 92.3809 80.0942 92.3809 80.1204C94.7895 83.6547 102.356 94.1008 106.702 94.9909C109.634 95.5931 112.906 88.4458 114.006 86.0634C116.598 80.356 118.771 73.0516 120.028 66.9253C120.159 66.3493 119.766 65.8781 119.792 65.7472C119.818 65.6163 120.525 66.1661 120.63 65.8781C120.682 65.6948 120.316 62.684 120.63 62.0557L121.206 62.1866C120.08 60.8776 121.337 60.4063 121.415 59.8827C121.651 58.1286 121.86 56.2436 122.07 54.5681C122.227 53.1281 121.546 51.5049 121.782 50.3268C121.965 49.3319 122.62 49.9341 122.62 49.9079C122.986 44.9859 123.065 40.0378 122.279 35.142C121.913 32.8381 120.813 31.4767 121.206 29.8535L120.656 30.1415C120.656 28.0209 119.504 25.0101 118.588 23.0204C106.937 -2.63663 88.6109 15.0615 84.0293 34.0948C83.1915 37.5245 82.694 41.8704 82.4846 45.4048C82.4846 45.8237 81.673 47.1328 82.4846 47.6564C82.3799 51.0598 82.982 54.411 83.0606 57.8145L83.6104 56.6887V60.642L84.1863 60.0922L83.8984 62.0557L84.4481 61.2179L84.1602 63.4695L84.71 62.9197C84.0031 63.8098 86.6997 65.4068 84.4481 64.4643C85.1812 65.3807 85.7048 65.5639 85.5739 66.8729L85.2859 66.3232C84.6576 67.2395 85.4954 67.3442 86.1237 66.3232C85.9404 67.0824 86.0713 67.8155 86.1237 68.5747C86.019 68.4176 85.7572 67.7369 85.5477 68.1558L86.1237 69.9884C86.5688 70.067 86.4117 69.4125 86.4117 69.1507C86.6473 69.7005 86.595 69.9623 86.6997 70.2764C86.2546 70.5906 86.6997 70.7739 86.6997 70.8524C86.6997 71.0619 86.8829 71.2451 86.9877 71.4284C87.0662 71.5593 86.8306 72.0044 87.1186 72.0044C87.3542 72.0044 87.3018 71.5593 87.2495 71.4284L87.328 71.3498ZM74.7351 12.8623V13.1503L74.866 13.0194L74.7351 12.8885V12.8623ZM69.3681 27.2878V27.5758L69.499 27.4449L69.3681 27.314V27.2878ZM67.6664 40.5614V40.8494L67.7973 40.7185L67.6664 40.5876V40.5614ZM121.939 58.914V59.202L122.07 59.0711L121.939 58.9402V58.914ZM35.4642 67.1086V67.3966L35.5951 67.2657L35.4642 67.1348V67.1086ZM33.4744 67.9725V68.2605L33.6054 68.1296L33.4744 67.9987V67.9725ZM181.604 77.2928V77.5808L181.735 77.4499L181.604 77.319V77.2928ZM199.407 80.6701V80.9581L199.538 80.8272L199.407 80.6963V80.6701ZM89.1607 94.8077V95.0957L89.2916 94.9648L89.1607 94.8339V94.8077ZM127.332 101.876V102.164L127.463 102.034L127.332 101.903V101.876ZM99.0569 106.668V106.955L99.1878 106.825L99.0569 106.694V106.668ZM97.9312 108.081V108.369L98.0621 108.238L97.9312 108.107V108.081ZM129.584 114.312V114.6L129.714 114.469L129.584 114.338V114.312ZM44.2085 118.266V118.554L44.3394 118.423L44.2085 118.292V118.266ZM79.8404 118.527V118.815L79.9713 118.684L79.8404 118.554V118.527ZM77.5626 119.103V119.391L77.6935 119.26L77.5626 119.129V119.103ZM46.0412 119.391H45.4914V119.679H46.0412V119.391ZM48.1618 120.805V121.093L48.2927 120.962L48.1618 120.831V120.805ZM49.0257 121.355V121.643L49.1567 121.512L49.0257 121.381V121.355ZM60.3358 127.298V127.586L60.4667 127.455L60.3358 127.324V127.298Z" fill="#002E3D"/>
<path d="M70.9393 70.224C70.9393 70.224 70.3634 70.0669 70.9393 69.936V70.224Z" fill="#002E3D"/>
<path d="M61.5932 127.847C61.5932 127.847 62.2478 128.162 62.1692 128.397C61.41 128.397 61.2529 128.607 61.3314 127.847C61.41 127.874 61.5409 127.821 61.6194 127.847H61.5932Z" fill="#002E3D"/>
<path d="M87.3282 71.3497H87.0402C86.9878 71.0879 86.7784 70.8784 86.7522 70.7737C86.6998 70.6166 86.8045 70.3548 86.7522 70.1978C87.4329 70.3025 87.1711 71.0355 87.3282 71.3235V71.3497Z" fill="#002E3D"/>
<path d="M86.465 69.0979C86.465 69.0979 86.2032 68.7576 86.177 68.522C86.3079 68.7052 86.3864 68.8623 86.465 69.0979Z" fill="#002E3D"/>
<path d="M200.953 79.2563H201.241C201.057 79.5967 201.005 79.7014 200.953 79.2563Z" fill="#002E3D"/>
<path d="M141.424 56.5158L140.717 62.2847L141.08 62.3293L141.788 56.5604L141.424 56.5158Z" fill="#002E3D"/>
<path d="M199.251 45.0645C198.44 43.9126 199.461 41.8705 200.089 40.8232L199.251 45.0645Z" fill="#002E3D"/>
<path d="M73.48 14.0143C73.6633 14.2761 73.2706 14.8259 72.9302 14.852C72.6684 14.3808 73.1659 13.5168 73.48 14.0143Z" fill="#002E3D"/>
<path d="M141.888 54.4109C141.312 54.437 141.705 53.3898 141.6 52.9971C142.15 52.9447 141.783 53.9396 141.888 54.4109Z" fill="#002E3D"/>
<path d="M142.152 49.8816C141.576 49.9077 141.968 48.8605 141.864 48.4678C142.413 48.4154 142.047 49.4103 142.152 49.8816Z" fill="#002E3D"/>
<path d="M140.736 64.0189C140.213 64.0975 140.527 63.3121 140.448 62.8932C140.972 62.8146 140.658 63.6 140.736 64.0189Z" fill="#002E3D"/>
<path d="M66.6992 48.7558C66.1756 48.8343 66.4898 48.0489 66.4112 47.63C66.9348 47.5514 66.6207 48.3369 66.6992 48.7558Z" fill="#002E3D"/>
<path d="M75.1821 118.815C75.6795 119.155 73.8469 119.182 74.3443 118.815C74.3705 118.789 75.1297 118.789 75.1821 118.815Z" fill="#002E3D"/>
<path d="M200.666 40.2734C200.325 40.7708 200.299 38.9382 200.666 39.4356C200.692 39.4618 200.692 40.221 200.666 40.2734Z" fill="#002E3D"/>
<path d="M66.6991 46.7661H66.4111V47.3159H66.6991V46.7661Z" fill="#002E3D"/>
<path d="M66.6991 45.6401H66.4111V46.1899H66.6991V45.6401Z" fill="#002E3D"/>
<path d="M77.4323 6.94531H77.1443V7.49511H77.4323V6.94531Z" fill="#002E3D"/>
<path d="M70.9408 20.2188H70.6528V20.7685H70.9408V20.2188Z" fill="#002E3D"/>
<path d="M61.619 114.024H61.3311V114.574H61.619V114.024Z" fill="#002E3D"/>
<path d="M75.311 9.19678L75.4419 9.32768L75.311 9.48476V9.19678Z" fill="#002E3D"/>
<path d="M141.732 54.9609L141.889 55.118L141.732 55.2489V54.9609Z" fill="#002E3D"/>
<path d="M141.732 51.8711L141.889 52.002L141.732 52.1329V51.8711Z" fill="#002E3D"/>
<path d="M197.706 47.3423L197.863 47.4732L197.706 47.6303V47.3423Z" fill="#002E3D"/>
<path d="M198.569 45.0908V45.3526L198.281 45.6406L198.15 45.5097L198.569 45.0908Z" fill="#002E3D"/>
<path d="M70.7832 71.0615L70.9403 71.2186L70.7832 71.3495V71.0615Z" fill="#002E3D"/>
<path d="M135.815 22.7583L135.946 22.8892L135.815 23.0463V22.7583Z" fill="#002E3D"/>
<path d="M22.4539 95.0957L22.5848 95.2266L22.4539 95.3575V95.0957Z" fill="#002E3D"/>
<path d="M145.424 102.714L145.554 102.845L145.424 103.002V102.714Z" fill="#002E3D"/>
<path d="M97.9329 106.379L98.0638 106.536L97.9329 106.667V106.379Z" fill="#002E3D"/>
<path d="M116.86 114.574L117.017 114.731L116.86 114.862V114.574Z" fill="#002E3D"/>
<path d="M73.8972 13.438L74.0281 13.5689L73.8972 13.726V13.438Z" fill="#002E3D"/>
<path d="M91.2827 65.9827C91.2827 65.9827 92.3823 63.9406 92.6965 65.014C93.1415 66.5325 91.4136 66.2707 91.2827 65.9827Z" fill="#002E3D"/>
<path d="M111.363 14.2761C111.363 14.2761 111.022 13.2288 111.075 13.1503C111.441 12.7576 112.253 14.7473 111.363 14.2761Z" fill="#002E3D"/>
<path d="M83.3765 54.9608C82.8529 55.0394 83.167 54.254 83.0885 53.8351C83.6121 53.7565 83.2979 54.5419 83.3765 54.9608Z" fill="#002E3D"/>
<path d="M83.0876 51.5834C82.564 51.6619 82.8782 50.8765 82.7997 50.4576C83.3233 50.3791 83.0091 51.1645 83.0876 51.5834Z" fill="#002E3D"/>
<path d="M120.684 34.0683C120.344 34.5657 120.318 32.7331 120.684 33.2305C120.71 33.2567 120.71 34.0159 120.684 34.0683Z" fill="#002E3D"/>
<path d="M83.9518 58.3643H83.6638V58.9141H83.9518V58.3643Z" fill="#002E3D"/>
<path d="M116.024 20.5068L116.155 20.6377L116.024 20.7686V20.5068Z" fill="#002E3D"/>
<path d="M90.5747 20.2188L90.7056 20.3497L90.5747 20.5067V20.2188Z" fill="#002E3D"/>
</g>
<defs>
<clipPath id="clip0_2981_2">
<rect width="209" height="131.086" fill="white" transform="translate(0.22583 0.164551)"/>
</clipPath>
</defs>
</svg>
