<svg width="106" height="69" viewBox="0 0 106 69" fill="none" xmlns="http://www.w3.org/2000/svg">
<g clip-path="url(#clip0_2969_65)">
<path d="M60.3109 49.7963V49.7046C60.5026 49.7428 60.3262 49.7733 60.3109 49.7963Z" fill="#005D71"/>
<path d="M39.7167 56.2968C39.3026 56.1211 39.4023 55.9684 39.3486 55.9302C39.364 55.9531 39.6017 56.167 39.7167 56.2968Z" fill="#005D71"/>
<path d="M34.1116 15.3766H33.9276C33.9966 15.1933 34.0196 15.2467 34.1116 15.3766Z" fill="#005D71"/>
<path d="M56.7226 28.5609C56.531 28.5151 56.7226 28.4769 56.7226 28.4692V28.5609Z" fill="#005D71"/>
<path d="M86.4181 48.3377C86.1114 48.5363 85.9044 48.5134 86.1421 48.3377C86.1804 48.3148 86.3491 48.3606 86.4181 48.3377Z" fill="#005D71"/>
<path d="M50.8418 43.1128C50.8342 43.2579 50.6655 43.1968 50.5658 43.2045C50.6271 43.1205 50.7421 43.0975 50.8418 43.1128Z" fill="#005D71"/>
<path d="M50.8417 43.1124C50.8187 42.6999 50.857 42.2492 50.8417 41.8291C50.8417 41.8138 50.5887 41.9513 50.5734 41.7833C50.5734 41.7374 50.7574 41.3632 50.7497 41.1416C50.4354 34.7481 50.2973 28.3392 49.8756 21.9533C49.4539 15.5674 48.1582 8.16555 48.4112 1.7338C48.4342 1.14562 48.5032 0.542171 48.7332 -0.0078125C48.6872 0.778969 49.2469 0.595641 49.2853 0.633835C49.3159 0.656751 49.2623 0.977574 49.2853 1.00049C49.3083 1.02341 49.5689 0.855356 49.6533 0.908826C49.776 0.992852 49.8066 4.23164 50.3893 2.92543C50.1823 3.73513 50.8417 4.23928 51.0871 4.84274C51.1944 5.11009 51.1637 5.56077 51.3171 5.98853C51.3708 6.12603 51.6391 6.08784 51.6774 6.20242C51.9151 6.85934 52.0225 8.15791 52.2295 8.88358L52.4135 8.79192C52.8275 10.3808 52.6589 12.2981 52.8965 13.8487C53.0729 14.9945 53.6173 16.3771 53.7783 17.5611C54.3533 21.7013 54.2613 25.7268 54.522 29.8975C54.5373 30.0885 54.706 29.9892 54.7137 30.0732C54.729 30.3253 54.5297 30.1114 54.5297 30.1191C54.6217 31.2725 54.9974 32.403 54.9897 33.5946L55.0817 33.228L55.3577 33.503L57.1059 23.4352C57.1979 23.4505 57.3129 23.3818 57.3819 23.4811C57.4662 23.6109 56.9295 26.1011 56.8299 26.4525C57.2209 26.4678 56.9679 25.9254 57.2899 26.1775V25.2609L57.4739 25.4442C57.2592 24.9553 57.4586 24.8942 57.4739 24.8255C57.8419 22.5186 58.5013 19.8833 59.0687 17.584C59.337 16.4993 59.5594 14.941 59.8738 13.6807C60.0194 13.1078 60.6942 12.2751 60.5561 11.5266C60.7248 11.2668 60.7862 11.8168 60.8782 11.7099C60.9012 11.687 60.9088 11.2516 60.9625 11.1294C61.0162 11.0148 61.2309 11.0912 61.2462 11.0682C61.2769 11.0148 60.9012 10.8773 61.0622 10.6099L61.2462 10.7933C60.9625 10.3044 61.4225 10.1898 61.4302 10.1516C61.4686 10.0141 61.0699 10.0829 61.2462 9.87661C61.6602 9.41065 61.5606 10.6558 61.6142 10.7933L61.7982 9.87661L62.0743 10.2051L61.7982 15.2313L60.5178 23.7484V24.8866L60.7018 23.7866C60.8398 24.6039 60.6405 25.9331 60.5255 26.8573C60.4258 27.6212 60.2648 28.6524 60.1268 29.508C59.9581 30.585 59.6974 31.7003 59.5134 32.7926C59.4904 32.9072 59.245 32.8231 59.2297 32.8461C59.1684 32.9759 59.4291 32.8766 59.4214 33.0676C59.3907 33.9919 59.13 34.9085 59.0074 35.8786C58.9844 36.0696 58.7773 36.0237 58.7697 36.1001C58.7697 36.1307 59.1377 36.6119 59.1377 36.6501C59.0764 37.8417 58.44 39.8583 58.2253 41.1493C57.9953 42.5701 58.0029 44.029 57.4816 45.3505C57.8036 45.9005 58.0183 45.1596 58.2866 44.854C58.5396 44.5714 59.4981 43.4485 59.6744 43.1812C59.7357 43.0895 60.0884 42.2951 59.6897 42.4631C60.2955 42.6694 60.4795 41.2333 60.6175 41.0041C60.6328 40.9812 60.8322 41.0194 60.8628 40.9812C61.3305 40.2021 61.5912 38.9111 62.726 38.9799C62.5036 38.5521 63.5464 37.9105 63.7841 37.8799C63.9297 37.857 64.5508 38.6132 64.6045 38.6209C64.6581 38.6285 64.9955 38.3153 65.1565 38.4375C65.2945 38.5445 65.0798 38.766 65.1105 38.8042C65.2255 38.9417 65.7776 38.1244 65.7622 39.041C65.7469 40.0646 65.0568 40.9812 64.6505 41.8291C64.6198 41.8979 64.8498 41.9819 64.7885 42.0965C64.6428 42.3715 64.4051 42.9214 64.0984 42.4631L64.1521 43.1964C61.7522 47.5123 65.2255 42.7687 66.0229 41.7298C66.1916 41.9513 66.0229 42.4173 65.8389 42.5548H66.1072L72.5478 34.412C73.1075 34.9543 73.8052 33.1745 74.3036 33.0065C74.4646 32.953 75.331 32.8995 75.3923 32.9454C75.4536 32.9912 74.7559 33.5794 74.9783 33.6787C75.2466 33.4724 76.5271 31.6086 76.7571 32.1815C76.9104 32.5787 76.4887 32.953 76.4964 32.9912C76.5271 33.0829 76.7417 32.8995 76.7724 32.9454C76.8951 33.144 74.6256 35.8557 74.3266 36.2605C73.4985 37.3834 72.7701 38.3764 72.1567 39.4917L70.0789 41.7451L70.1556 42.0965C69.9562 41.6305 69.8489 42.3867 69.7032 42.5777C69.3428 43.036 68.8751 43.4714 68.5378 43.9527C68.4994 44.0061 68.5608 44.2811 68.4918 44.3728C68.4764 44.3957 68.3538 44.2658 68.2311 44.4339C68.2157 44.4568 68.3308 44.6325 68.3154 44.6554C68.3001 44.6783 67.9627 44.6325 67.9474 44.6554C67.9091 44.7012 67.9857 44.9686 67.9474 45.0221C67.9474 45.0297 67.771 44.9151 67.7634 44.9304C67.7174 45.0068 67.9167 45.32 67.8554 45.3887C67.8324 45.4193 67.5027 45.3658 67.4874 45.3887C67.472 45.4193 67.38 45.8929 67.2803 46.0457C67.242 46.0991 66.1686 47.3595 66.9353 46.9394C67.035 46.8859 67.9244 45.2436 68.2694 45.1137C67.5717 46.313 66.6746 47.4206 65.7852 48.4977C67.7634 45.5109 65.9386 47.6192 65.1872 48.8643C65.8849 48.7421 65.1718 49.5518 64.9572 49.5976C64.4895 49.6969 65.3712 49.0935 65.3712 49.0476C65.3712 48.3754 64.6658 49.7275 64.6351 49.781C64.3361 49.8803 63.6691 50.6212 64.1751 50.5143C64.0448 50.6976 63.2857 51.8969 63.255 51.9809C63.2397 52.0344 63.0863 51.9656 63.255 52.0726C63.8837 52.4698 64.4818 51.4309 65.0952 51.4309L64.9112 51.2476C66.2146 50.4226 67.3877 49.3761 68.6835 48.5511C68.8138 48.4671 69.8719 48.0775 70.2399 47.8637C70.2476 47.8637 70.1402 47.688 70.1479 47.6803C70.2246 47.6345 70.4929 47.6651 70.6233 47.581C70.999 47.3595 71.9344 46.397 72.2564 46.8477L72.1644 46.4811C72.6858 46.8019 72.8544 46.3894 73.3221 46.3054C73.8589 46.2061 75.1086 46.3359 75.4767 45.9387C75.768 46.4734 75.6147 46.9394 76.3967 47.1303L76.2127 47.3137C77.2785 47.1991 75.883 49.1546 75.5993 49.4983C75.4536 49.6817 75.193 49.7198 75.1163 49.8039C75.0779 49.8497 75.2006 50.0101 75.193 50.0178C75.1393 50.0789 74.9859 49.949 74.8403 50.1094C74.6409 50.3157 74.6409 50.5525 74.6256 50.5677C74.5872 50.6059 73.8435 50.8045 73.8665 51.2476C74.3266 50.8045 74.8479 50.6976 75.561 50.2851C78.8119 48.3678 81.9862 46.5422 85.3368 44.9304C86.0575 44.5867 86.6862 43.7541 87.6139 43.9297L87.3839 44.2964C88.6567 43.8992 89.8834 42.8451 91.1102 42.6465L90.9262 42.4631C91.4092 42.6694 91.9459 41.959 92.3293 41.7986C92.7817 41.6152 93.4564 41.6534 93.9164 41.2715L93.6864 41.8215C94.9362 41.325 93.9854 42.0736 93.5944 42.4631C93.9624 42.4097 94.7368 41.6 95.1049 41.7298C95.2122 41.768 95.1892 42.1194 95.2505 42.1958C95.2812 42.234 95.4959 42.0736 95.5266 42.1041C95.8409 42.4784 88.2733 47.306 87.7596 47.5963L88.1736 47.138C87.3763 47.5276 87.4683 47.94 86.4255 48.3296C86.6402 48.1921 86.9852 47.9171 87.1156 47.688C86.8319 47.9477 86.4408 48.0852 86.1495 48.3296C85.9655 48.4824 86.1725 48.6734 86.1495 48.6963C86.0651 48.7727 85.3061 49.0247 85.1374 48.8796C85.0914 49.0629 85.4901 48.8796 85.4134 49.0629C85.2524 49.4143 79.6706 52.6607 78.8656 53.1878C78.5052 53.4246 78.1679 53.692 77.7922 53.9364C77.7385 53.9746 77.9148 54.135 77.8305 54.1885C77.8152 54.2037 77.6081 54.0586 77.4011 54.1961C76.0364 55.0898 74.7253 56.0752 73.2838 56.8467L73.4678 57.03L72.9158 57.1217C73.3835 57.4655 72.7701 57.1064 72.8238 57.4884C73.2455 57.3509 73.8358 57.4731 73.0998 57.6717C73.5138 57.8703 74.0122 57.5724 74.2499 57.5724C74.8326 57.5724 75.4076 57.6946 76.1667 57.6641C78.2139 57.58 81.7101 56.9613 83.5426 57.1217C83.788 57.1446 83.9796 57.305 84.225 57.305L83.581 57.58C84.57 57.7022 86.3258 57.3585 87.2076 57.58C87.5296 57.6641 87.867 58.0536 88.1506 58.1988C88.2887 58.2675 88.695 58.1835 88.7334 58.214C88.7947 58.2751 88.4343 59.673 88.695 59.9557C87.6676 60.7501 86.2645 61.491 84.9611 61.4146L85.4211 61.598L83.0289 61.873L83.673 61.6896C83.7036 61.5139 83.4429 61.6362 83.3969 61.598C83.2666 61.4834 83.9413 61.5063 83.5349 61.4146C79.5863 61.957 75.6147 62.1403 71.6277 62.3313C72.6244 62.4535 73.8819 62.1556 74.7559 62.6063L74.2039 62.6979C77.0024 63.0722 79.8317 62.9958 82.6609 62.9729L82.5229 63.1562C88.6183 63.2556 94.7138 63.0722 100.802 63.0646C100.863 63.0646 100.802 62.8736 101.078 62.8736C102.021 62.8583 101.867 63.1562 101.921 63.1639C102.381 63.2097 103.884 63.0035 104.122 63.3319C104.175 63.4083 104.037 63.668 104.076 63.7062C104.221 63.8437 105.141 63.668 105.18 63.7062C105.226 63.7521 105.08 64.0118 105.111 64.0576C105.226 64.2257 106.031 65.1499 106.015 65.3103C105.985 65.6083 105.502 65.7381 105.463 65.8603C105.433 65.9367 105.663 65.8451 105.655 66.0437C105.647 66.2423 105.44 66.4409 105.463 66.4561C105.517 66.502 106.284 66.2117 105.517 66.9221C105.126 67.2888 104.612 67.1513 104.497 67.1971C104.444 67.2124 104.551 67.3728 104.543 67.3728C102.726 67.8999 99.5519 68.0908 97.6044 68.2054C89.1321 68.6866 79.2106 68.2741 70.6616 67.9304C69.8335 67.8999 68.6528 67.5179 67.9551 67.8311L69.4272 67.9228C69.0131 68.3811 68.0317 67.7089 67.587 68.1061L68.2311 68.1978C67.1347 68.32 65.5629 68.1978 65.3789 66.8763C65.3405 66.5707 65.6089 66.8992 65.6549 66.5555C64.8881 66.5402 64.7195 66.0589 65.5629 65.9138C65.4249 65.8832 64.8652 65.952 64.8268 65.9138C64.7501 65.8451 64.9572 63.8972 65.0108 63.8132C65.0722 63.7139 66.7973 62.6827 67.0273 62.5681C67.2573 62.4535 67.564 62.9118 67.495 62.2549C67.9781 62.4306 67.4107 61.4146 67.1423 61.3535C66.782 61.2619 66.5979 61.5598 66.3143 61.4987C66.1916 61.4757 64.7041 59.7418 64.6505 59.6119C64.6045 59.505 64.3744 58.2599 64.3821 58.1911C64.4358 57.9543 64.8038 57.8779 64.8191 57.855C64.8575 57.7863 64.4818 57.7786 64.8191 57.3967C63.8377 57.412 62.2583 55.8079 62.1586 54.8759C62.0973 54.3183 62.3426 54.1656 62.3426 54.051C62.3426 53.9288 61.8749 54.051 62.2506 53.501L61.4839 53.8142C61.1235 53.669 60.1805 53.2413 60.2265 52.8593C60.2341 52.783 60.6405 52.7218 60.5025 52.5385C60.4871 52.5156 60.1881 52.867 60.1344 52.5843C60.1038 52.401 60.4181 52.0955 60.3185 51.9885C60.3031 51.9656 60.0424 52.0191 59.9428 51.9427C59.7511 51.7899 60.0501 51.4462 59.3064 51.7059C59.4214 51.2399 59.8354 51.492 59.5824 50.8809C60.0808 51.6142 59.7357 50.6441 59.7664 50.6059C59.7817 50.5907 60.2035 50.5448 60.2265 50.5143C60.2341 50.499 60.0961 50.2775 60.1421 50.2087C60.2801 49.9948 60.7632 49.6969 60.7785 49.3761C60.8015 48.8872 60.3415 49.6664 60.3185 49.6969C60.2801 49.7351 60.1344 49.7504 60.3185 49.7886C59.6744 50.583 58.946 51.3316 58.302 52.1184C57.1212 52.6302 56.9985 51.6601 56.5768 51.8663C56.3468 51.9809 55.6874 53.5163 55.4804 53.6385C55.1661 53.8218 54.8287 53.7531 54.5527 53.8371C54.499 53.8524 54.499 54.135 54.2076 54.1808C53.947 54.2267 53.6019 54.0281 53.3872 54.0815C53.2876 54.1044 53.3719 54.3336 53.3336 54.3489C53.2109 54.41 53.0192 54.3183 52.8812 54.3718C52.8582 54.3794 52.8889 54.6162 52.8735 54.6239C52.7125 54.6926 52.4518 54.5398 52.3215 54.5933C52.2372 54.6315 51.5854 55.2961 51.4091 55.0898C51.2711 54.9294 51.7081 51.5302 51.6774 50.9191C51.6391 50.0712 51.3554 49.1469 51.2251 48.3143L51.4091 48.3602C51.2711 47.8866 51.3018 48.0699 50.857 48.131C50.7574 48.4136 51.1331 48.2914 51.1331 48.3143C51.1714 48.6122 50.8724 49.0476 50.8417 49.1851C50.8034 49.3608 50.9797 49.7351 50.9414 49.781C50.9184 49.8115 50.6884 49.6435 50.6654 49.6893C50.558 49.9032 50.6807 50.5219 50.6424 50.6518C50.604 50.7969 50.3127 50.774 50.305 50.7969C50.2743 50.8809 50.4277 51.3545 50.3893 51.4233C50.2973 51.5837 49.937 51.0872 49.8373 51.2399C49.7836 51.3163 50.0213 51.9274 50.006 52.1031C49.8296 53.86 48.8099 52.0344 48.5799 51.9656C47.6751 51.6906 47.9972 52.3094 47.9051 52.4469C47.8515 52.5309 47.3148 53.2565 47.2688 53.2871C46.7704 53.6461 46.5174 53.0732 46.1647 54.2114L46.4407 54.3489C46.0343 54.4329 45.536 54.7461 45.2139 54.9829C45.1066 55.0593 45.1679 55.2502 45.1526 55.2655C45.0836 55.3266 44.7922 54.9218 44.7922 54.8989C44.7616 54.7003 45.1679 54.8607 44.7386 54.1808C44.6926 54.1121 44.8076 53.9135 44.7922 53.8982C44.7692 53.8829 44.2555 53.7836 44.2402 53.8065C44.2019 53.8524 44.1712 54.685 44.1482 54.7232C44.1329 54.7461 43.8338 54.685 43.7955 54.7385C43.6575 54.9523 43.5425 55.3877 43.3661 55.5558C43.2741 55.6551 43.0901 55.5558 43.0364 55.594C42.9368 55.6704 42.9751 55.869 42.8064 55.9912C42.7604 56.0217 42.5381 55.8613 42.4 55.953C42.2697 56.037 42.2544 56.3349 42.2007 56.3655C42.1087 56.419 41.5183 56.3655 41.4876 56.3808C41.4493 56.396 41.3343 56.9537 40.9739 56.9919C40.9203 56.9919 39.9849 56.7551 39.9389 56.7245C39.9082 56.7016 39.8392 56.4113 39.7318 56.2891C39.8315 56.3349 40.0615 56.3273 40.1919 56.3808L39.8238 56.1974C40.4909 55.9836 39.6168 55.9301 39.4098 55.6474C39.1875 55.5634 39.3561 55.9072 39.3638 55.9224C38.2827 55.1815 38.3287 55.3572 37.1556 55.0058C37.1403 55.0058 37.2783 54.8454 37.1096 54.7385C36.895 54.601 37.148 55.1739 36.8796 54.9218C36.8643 54.9065 36.9256 54.7003 36.8183 54.6391C35.0701 53.585 32.2563 52.7066 30.2551 52.126C29.8641 52.0114 29.473 51.874 29.059 51.9885L29.243 51.8052C28.2003 51.3774 27.2035 51.0261 26.1224 50.7052L26.2144 50.5295C25.6394 50.1553 25.6164 50.7663 25.3864 50.8504C24.7423 51.0643 25.4937 50.3462 25.4784 50.3004C25.4401 50.2164 25.164 50.2698 25.1104 50.1171C25.049 49.9108 25.8157 49.0018 25.8387 48.8796C25.9078 48.5282 25.44 48.872 25.5704 48.4747C25.7467 47.9324 27.3262 47.8102 26.9428 47.5123C27.7019 47.8331 27.2265 47.4664 27.3109 47.4206C27.5409 47.2984 28.7753 47.7032 29.151 47.4206L29.059 47.6039C29.6187 47.6345 30.3394 47.7796 30.8608 47.9553C31.5202 48.1768 31.9266 48.8643 32.6396 48.3372H32.1796C32.8696 48.2456 31.5815 47.5581 31.2748 47.2678C30.7765 46.7942 30.3241 46.1755 29.8564 45.7172C29.7491 45.6102 29.565 45.6255 29.5267 45.5873C29.5114 45.5721 29.6187 45.4193 29.611 45.4116C28.461 44.2888 27.0885 43.2728 26.0228 41.9819C25.44 41.2715 22.7412 37.3147 22.6798 36.7112C22.6568 36.4973 22.6875 36.2911 22.7642 36.0848C23.3009 34.687 24.7193 35.3744 25.8311 34.7939L32.2716 41.0576C32.9693 41.2868 33.5674 42.318 34.2881 42.2034L34.1041 42.4784C34.9705 42.5471 34.7404 42.4708 34.6561 41.7451L34.4721 41.9284L33.207 38.9341C32.8083 38.1931 31.1828 35.9855 31.0448 35.4967C30.9605 35.1988 30.7305 33.6328 31.2058 33.7092C31.3515 33.7321 31.3899 34.03 31.4972 34.053C31.8499 34.1141 32.1259 33.9307 32.6856 34.137C32.9923 34.2516 33.276 34.7939 33.391 34.8474C33.7284 35.0078 34.7021 35.13 35.1545 35.3363C35.2465 35.3821 35.0548 35.5807 35.1085 35.6036C35.2005 35.6494 35.6068 35.5578 35.8752 35.6876C36.1896 35.848 36.3352 36.8334 36.8566 36.7036C36.4963 37.055 37.2016 37.5056 37.4547 37.8952L37.5927 37.7119L37.9607 37.9869L37.7767 38.1702C38.2291 38.2389 38.1294 37.857 38.0834 37.5515C37.562 34.3356 35.4765 30.1572 34.7558 26.8497C34.6561 24.4512 31.8806 17.5611 32.632 15.5598C32.632 15.5521 32.8083 15.6667 32.862 15.5598C32.8926 15.5063 32.862 15.216 32.908 15.1855C33.023 15.1091 33.0076 15.4146 33.1303 15.4376C33.5214 15.5063 33.391 14.9487 33.644 15.0938C33.667 15.1091 33.552 15.1396 33.9201 15.3688C33.9354 15.3764 33.9967 15.8959 34.1041 15.3688C34.3187 15.6667 34.2421 15.9952 34.3034 16.0868C34.3571 16.1632 34.6791 16.1403 34.7941 16.2854C34.9245 16.4611 34.8861 16.8125 34.9781 16.9271C35.0625 17.0264 35.2082 16.9042 35.3002 16.9653C35.3845 17.0188 35.3845 17.1868 35.3922 17.1944C35.4995 17.2556 35.4995 16.8049 35.6682 17.0111C35.7065 17.0569 35.9442 17.9278 36.0592 18.134C36.5423 19.0124 36.7186 19.3944 37.125 20.3798C37.1403 20.4256 37.2323 21.1589 37.2476 21.2124C37.2706 21.2659 37.7997 22.1137 37.8764 22.2283C37.8917 22.2589 38.2291 22.1978 38.2444 22.2283C38.3364 22.3582 38.8654 24.8789 39.0571 25.3984C40.5216 29.3705 41.8173 33.4266 43.2665 37.4063C43.3355 37.5973 43.6805 37.4292 43.2971 37.6966C43.9105 38.2619 44.1175 40.3472 44.4932 40.8132C44.5085 40.8284 44.8689 40.6833 44.8612 40.859C44.8612 40.9125 44.3859 40.7444 44.9533 41.6687C45.0299 41.7909 45.2139 41.7145 45.2293 41.7298C45.2446 41.7527 44.9993 42.2492 45.5053 42.0506L44.7846 32.0669C44.9379 31.578 44.7846 31.0281 44.8996 30.5545C45.0146 30.0809 45.2599 30.2336 45.3059 30.1802C45.3136 30.1649 45.2676 29.867 45.3213 29.8288C45.5206 29.676 45.6203 30.0121 45.6356 30.0121C45.72 30.0121 45.8733 29.8059 46.1417 29.8746C46.7704 30.0503 46.548 30.776 47.3454 30.7454L47.1614 30.9288C47.9051 30.8294 47.7518 31.7919 47.8975 32.1204C47.8975 32.1357 48.1352 31.9752 48.2348 32.2426C48.4955 32.9148 48.3422 33.3884 48.8329 34.305C48.8559 34.3509 49.0782 34.3127 49.0859 34.328C49.1472 34.4654 48.8712 34.3891 48.8942 34.4654C49.5076 36.5584 49.3849 38.9875 49.914 41.2791L50.0903 41.1951C50.1133 41.2486 50.0827 41.3326 50.0903 41.3708C49.8986 41.1798 49.9063 41.493 49.9983 41.6458C50.144 41.6916 50.098 41.3784 50.0903 41.3708C50.328 41.9972 49.9293 41.6229 49.9063 41.7833C50.4353 42.2645 49.9063 43.2346 50.5504 43.2041C50.4277 43.3568 50.2513 44.0749 50.7804 43.8992C50.8187 43.8839 50.8264 43.2041 50.8264 43.1124H50.8417ZM48.7716 8.05861V8.15027L48.8176 8.10444L48.7716 8.05861ZM61.5069 11.2592C61.6372 11.3356 61.7369 10.9689 61.5529 10.9842C61.4762 10.9842 61.4992 11.2516 61.5069 11.2592ZM59.2067 18.1264C59.2374 17.9736 59.314 17.8285 59.2987 17.668C59.1607 17.6375 59.015 18.1493 59.2067 18.1264ZM33.8357 21.1436H33.6517V21.2353H33.8357V21.1436ZM38.1064 22.3353V22.4269L38.1524 22.3811L38.1064 22.3353ZM57.2285 26.2692V26.3608L57.2746 26.315L57.2285 26.2692ZM57.1825 26.6358V26.4525H57.0905V26.6358H57.1825ZM56.7225 28.4691C56.6995 28.0872 57.1595 26.7504 56.9985 26.5442C56.8682 26.3761 56.4772 28.5608 56.5385 28.6524C56.5922 28.7288 56.7148 28.5608 56.7225 28.5608C56.7839 28.5608 56.9065 28.599 56.9065 28.5149L56.7225 28.4691ZM60.3568 26.8192V26.9108L60.4028 26.865L60.3568 26.8192ZM56.9065 28.3774V28.1941H56.8145V28.3774H56.9065ZM56.7225 29.0191C57.1212 28.7365 56.4618 28.7823 56.4465 28.9733C56.4465 29.0496 56.6995 29.0344 56.7225 29.0191ZM56.4925 29.2024V29.2941L56.5385 29.2482L56.4925 29.2024ZM56.6765 29.2941V29.3857L56.7225 29.3399L56.6765 29.2941ZM56.4465 30.0274C56.4312 29.8899 56.5232 29.6378 56.3545 29.6607C56.3698 29.7982 56.2778 30.0503 56.4465 30.0274ZM56.4465 30.3024V30.1191H56.3545V30.3024H56.4465ZM59.6207 30.5774V30.669L59.6667 30.6232L59.6207 30.5774ZM56.2165 30.669V30.7607L56.2625 30.7149L56.2165 30.669ZM55.9404 32.128V32.2197L55.9865 32.1739L55.9404 32.128ZM74.9246 33.0447C74.9246 33.0447 74.6639 33.037 74.6486 33.0447C74.4876 33.1669 75.0856 33.1516 74.9246 33.0447ZM76.5807 33.1363H76.3967V33.228H76.5807V33.1363ZM74.7406 33.228H74.5566V33.3196H74.7406V33.228ZM55.1891 33.778C55.1891 33.7169 55.1354 33.6634 55.074 33.6634C55.0127 33.6634 54.959 33.7169 54.959 33.778C54.959 33.8391 55.0127 33.8925 55.074 33.8925C55.1354 33.8925 55.1891 33.8391 55.1891 33.778ZM74.9246 33.778H74.7406V33.8696H74.9246V33.778ZM74.7023 34.053L74.5642 34.1905L74.6102 34.2363L74.7023 34.1446V34.053ZM31.6735 34.1446V34.2363L31.7195 34.1905L31.6735 34.1446ZM55.0204 34.4196V34.5113L55.0664 34.4654L55.0204 34.4196ZM58.8847 34.9696V35.0613L58.9307 35.0154L58.8847 34.9696ZM25.7927 35.0613V35.1529L25.8387 35.1071L25.7927 35.0613ZM73.8665 35.0613V35.1529L73.9125 35.1071L73.8665 35.0613ZM34.2957 35.1529H34.1117V35.2446H34.2957V35.1529ZM24.6887 35.2446V35.3363L24.7347 35.2904L24.6887 35.2446ZM58.7927 35.7946V35.8862L58.8387 35.8404L58.7927 35.7946ZM72.9081 36.1612C72.9081 36.1612 72.8314 36.4286 72.8621 36.4362C72.9925 36.4515 73.0615 36.0466 72.9081 36.1612ZM38.2904 38.0785V38.1702L38.3364 38.1244L38.2904 38.0785ZM38.2904 38.2619V38.3535L38.3364 38.3077L38.2904 38.2619ZM38.3824 38.6285V38.7202L38.4284 38.6744L38.3824 38.6285ZM64.7195 41.7451C64.7195 41.7451 64.6658 41.6458 64.6275 41.6076C64.4128 41.4625 64.5738 41.9208 64.7195 41.7451ZM45.0453 42.0201V41.8368H44.9533V42.0201H45.0453ZM45.6893 42.2034C45.6893 42.2034 45.697 41.9437 45.6893 41.9284C45.5666 41.768 45.582 42.3638 45.6893 42.2034ZM45.5973 42.4784C44.4855 42.2416 45.858 42.8985 45.6893 42.2951C45.5436 42.2492 45.605 42.4784 45.5973 42.4784ZM64.3514 42.4708V42.2874H64.2594V42.4708H64.3514ZM33.9737 42.3867V42.4784L34.0197 42.4326L33.9737 42.3867ZM93.4947 42.5701C93.1267 42.5166 92.9657 42.8985 93.3874 42.6846C93.4641 42.6465 93.5254 42.6846 93.4947 42.5701ZM45.6893 42.8374C45.95 42.6694 45.467 42.6617 45.3213 42.7458C45.2829 42.8985 45.674 42.8451 45.6893 42.8374ZM65.5935 42.6617V42.7534L65.6395 42.7076L65.5935 42.6617ZM34.8938 42.7534V42.8451L34.9398 42.7992L34.8938 42.7534ZM65.8236 42.8451C65.7392 42.7916 65.5552 42.9138 65.5475 43.0284C65.7009 43.1124 65.9769 42.9444 65.8236 42.8451ZM34.7098 42.9291V43.0207L34.7558 42.9749L34.7098 42.9291ZM45.513 43.3874C45.9807 44.136 45.5896 42.3333 45.421 43.0666C45.398 43.1735 45.6433 43.0437 45.697 43.1582C45.789 43.3568 45.4286 43.2499 45.513 43.3874ZM63.9451 43.0207V43.1124L63.9911 43.0666L63.9451 43.0207ZM65.3175 43.1124V43.2041L65.3635 43.1582L65.3175 43.1124ZM65.5015 43.2041V43.2957L65.5475 43.2499L65.5015 43.2041ZM50.4737 43.3034H50.2897V43.395H50.4737V43.3034ZM45.8733 43.67H45.6893V43.7617H45.8733V43.67ZM64.8575 43.9374V44.029L64.9035 43.9832L64.8575 43.9374ZM50.6117 44.029V44.1207L50.6577 44.0749L50.6117 44.029ZM50.8877 44.029V44.1207L50.9337 44.0749L50.8877 44.029ZM50.5657 44.304V44.4874H50.9337V44.304H50.5657ZM86.9239 44.4874V44.579L86.9699 44.5332L86.9239 44.4874ZM50.8877 44.579V44.6707L50.9337 44.6249L50.8877 44.579ZM50.8417 45.129C50.8417 45.129 50.9184 44.8617 50.8877 44.854C50.7574 44.8387 50.6884 45.2436 50.8417 45.129ZM63.117 45.2207V45.3123L63.163 45.2665L63.117 45.2207ZM67.7097 45.2207V45.3123L67.7557 45.2665L67.7097 45.2207ZM63.025 45.404V45.4957L63.071 45.4498L63.025 45.404ZM90.8342 45.404C90.8342 45.404 90.5735 45.3964 90.5582 45.404C90.3972 45.5262 90.9952 45.5109 90.8342 45.404ZM50.9337 45.679V45.4957H50.8417V45.679H50.9337ZM57.5506 45.954C57.5352 45.8165 57.6273 45.5644 57.4586 45.5873C57.4739 45.7248 57.3819 45.9769 57.5506 45.954ZM50.9337 46.0457V45.8623H50.8417V46.0457H50.9337ZM90.1901 45.8623H90.0061V45.954H90.1901V45.8623ZM62.1049 46.1373V46.229L62.1509 46.1831L62.1049 46.1373ZM89.6381 46.1373H89.4541V46.229H89.6381V46.1373ZM51.1177 46.504V46.3206H51.0257V46.504H51.1177ZM88.902 46.5956C89.0784 46.5956 89.2471 46.4963 89.3621 46.3665C89.2471 46.3741 88.9174 46.4581 88.902 46.5956ZM51.1177 46.779H50.9337V46.8706H51.1177V46.779ZM88.718 46.779C88.5187 46.7942 88.2273 46.9088 88.258 47.1456C88.396 46.947 88.5953 46.9394 88.718 46.779ZM51.3018 47.6039C51.3018 47.6039 50.9031 47.7032 50.8877 47.7185C50.4967 48.1157 51.6008 47.94 51.3018 47.6039ZM87.4299 47.6039H87.2459V47.6956H87.4299V47.6039ZM60.7248 48.3372V48.4289L60.7708 48.3831L60.7248 48.3372ZM50.9337 48.6963C50.9337 48.6963 50.9414 48.4366 50.9337 48.4213C50.811 48.2609 50.8264 48.8567 50.9337 48.6963ZM25.8848 48.5206V48.6122L25.9308 48.5664L25.8848 48.5206ZM32.9156 48.6963C33.1227 48.3143 31.9189 48.8338 32.5016 48.8796C32.5246 48.8796 32.908 48.7192 32.9156 48.6963ZM85.7738 48.5206L85.4058 48.7956C85.6128 48.7574 85.8428 48.7574 85.7738 48.5206ZM61.2309 49.0629C61.4455 48.7116 60.5868 49.04 60.8628 49.2463C60.8782 49.2615 61.2155 49.0782 61.2309 49.0629ZM85.0377 49.0706H84.8537V49.1622H85.0377V49.0706ZM84.7157 49.1546V49.2463L84.7617 49.2004L84.7157 49.1546ZM74.1425 50.4379V50.5295L74.1885 50.4837L74.1425 50.4379ZM63.7381 50.9879C63.7381 50.9268 63.6844 50.8733 63.6231 50.8733C63.5617 50.8733 63.508 50.9268 63.508 50.9879C63.508 51.049 63.5617 51.1024 63.6231 51.1024C63.6844 51.1024 63.7381 51.049 63.7381 50.9879ZM73.1765 51.2629H72.9925V51.3545H73.1765V51.2629ZM73.6365 51.5379C73.6365 51.5379 73.6978 51.3163 73.6825 51.2629C73.4295 51.3698 73.4218 51.7288 73.6365 51.5379ZM73.1381 51.7212V51.8128L73.1841 51.767L73.1381 51.7212ZM47.9435 51.8128V51.9045L47.9895 51.8587L47.9435 51.8128ZM56.2625 51.9962C56.3085 51.9427 56.0631 51.7441 55.9865 51.8128C55.9328 51.8587 56.1935 52.0726 56.2625 51.9962ZM72.5401 52.0878C72.7471 52.126 72.8774 52.0114 73.0001 51.8587C72.8851 51.9045 72.5631 51.958 72.5401 52.0878ZM60.5868 51.9045H60.4028V51.9962H60.5868V51.9045ZM55.9865 52.4545C56.0401 52.4163 56.1398 52.0191 55.8944 51.9962C55.8638 52.1566 55.7181 52.6531 55.9865 52.4545ZM62.795 51.9962H62.611V52.0878H62.795V51.9962ZM63.025 52.2712V52.3628L63.071 52.317L63.025 52.2712ZM62.887 52.6378V52.4545H62.795V52.6378H62.887ZM62.473 53.0045V53.0961L62.519 53.0503L62.473 53.0045ZM70.6539 53.2795V53.3711L70.6999 53.3253L70.6539 53.2795ZM70.93 53.3711V53.4628L70.976 53.417L70.93 53.3711ZM44.5929 53.6461C44.5929 53.6461 44.4012 53.6079 44.4089 53.692C44.3935 53.8753 44.4319 53.8676 44.5469 53.7378C44.5776 53.7149 44.6082 53.6767 44.5929 53.6461ZM70.0176 53.585L69.5575 53.86L69.6265 53.9746L70.0866 53.6996L70.0176 53.585ZM69.5038 54.1044C69.4578 54.1426 69.1358 54.1274 69.1358 54.1503C69.1511 54.303 69.4808 54.2954 69.5038 54.1044ZM69.9179 54.1044V54.1961L69.9639 54.1503L69.9179 54.1044ZM65.3635 57.03C65.3635 57.03 65.1028 57.0224 65.0875 57.03C64.9265 57.1523 65.5245 57.137 65.3635 57.03ZM72.6781 57.58V57.6717L72.7241 57.6259L72.6781 57.58ZM82.6455 57.6717H82.4615V57.7634H82.6455V57.6717ZM64.8575 57.9467V58.0384L64.9035 57.9925L64.8575 57.9467ZM85.4058 61.1473H85.2217V61.2389H85.4058V61.1473ZM84.4857 61.3001L83.926 61.3535V61.4757L84.4934 61.4223V61.3001H84.4857ZM70.3319 62.2472C70.1709 62.2931 69.7262 62.1403 69.6879 62.3389C69.8412 62.2931 70.2859 62.4535 70.3319 62.2472ZM73.5445 62.6139C73.4065 62.6521 73.0001 62.507 72.9925 62.7056C73.1305 62.6674 73.5368 62.8125 73.5445 62.6139ZM73.9125 62.6139C73.7668 62.5604 73.4985 62.6445 73.6365 62.7972C73.6442 62.8125 73.9432 62.7132 73.9125 62.6139ZM69.9639 62.7056C69.8029 62.7514 69.3582 62.5986 69.3198 62.7972C69.4732 62.7514 69.9179 62.9118 69.9639 62.7056ZM71.758 62.7056V62.7972L71.804 62.7514L71.758 62.7056ZM72.126 62.7056V62.7972L72.1721 62.7514L72.126 62.7056ZM74.3802 62.8889V62.9806H75.5763V62.8889H74.3802ZM82.1012 63.0722C81.9632 63.0875 81.7101 62.9958 81.7331 63.1639C81.8711 63.1486 82.1242 63.2403 82.1012 63.0722ZM104.022 67.0061V67.0978L104.068 67.052L104.022 67.0061ZM103.056 67.1895L99.3295 67.3728L99.3755 67.5561C98.7161 67.6707 97.5814 67.3193 97.1213 67.7394L89.6304 67.7853C90.3972 68.0297 91.5166 67.9686 92.0686 67.8311L96.3393 67.9228L96.0633 67.7394C98.3098 67.8846 100.794 67.5561 103.048 67.1895H103.056ZM80.6291 67.5561L75.2083 67.602C77.0024 67.7394 78.8656 67.8006 80.6291 67.5561ZM84.6697 67.6478C83.2973 67.7089 81.8712 67.5103 80.537 67.8311L84.6697 67.6478ZM89.4541 67.8311C89.0094 67.8693 84.8077 67.4645 84.7617 67.6936C84.7004 67.9839 86.2108 67.7471 86.2875 67.7547C87.3302 67.8006 88.4037 68.0526 89.4464 67.8387L89.4541 67.8311ZM71.298 67.7394V67.8311L71.344 67.7853L71.298 67.7394ZM80.215 67.7394V67.8311L80.261 67.7853L80.215 67.7394ZM67.4797 67.9228H67.2957V68.0144H67.4797V67.9228ZM90.0981 68.0144H89.9141V68.1061H90.0981V68.0144ZM95.3349 68.0144H95.1509V68.1061H95.3349V68.0144ZM96.393 68.0144V68.1061L96.439 68.0603L96.393 68.0144ZM96.991 68.0144H96.807V68.1061H96.991V68.0144Z" fill="#005D71"/>
<path d="M64.5354 50.0715C64.5737 50.0027 64.5737 49.8881 64.6274 49.7965C65.2715 49.5902 64.5967 50.0027 64.5354 50.0715Z" fill="#005D71"/>
<path d="M64.5358 50.0713C64.3671 50.3998 64.7044 50.415 64.1677 50.5296C64.2904 50.3463 64.3977 50.2317 64.5358 50.0713Z" fill="#005D71"/>
<path d="M63.7823 51.8921L63.2325 51.9966L63.2555 52.1166L63.8053 52.0122L63.7823 51.8921Z" fill="#005D71"/>
<path d="M30.9835 54.0129H30.8915C30.9375 53.9594 30.9605 54.0052 30.9835 54.0129Z" fill="#005D71"/>
<path d="M30.983 54.0128C32.9305 54.5857 35.3687 54.9753 36.9558 56.1287C37.0018 56.1593 36.8332 56.3732 36.8638 56.3961C36.9022 56.4266 37.4772 56.4496 37.7839 56.6252C37.8529 56.6634 37.7532 57.0225 38.1519 56.9461C37.4619 57.3356 38.7576 57.7099 38.796 57.771C38.8573 57.878 38.4433 57.9391 38.52 58.046C38.543 58.0689 38.8803 58.1224 38.888 58.1377C38.911 58.1912 38.681 58.5349 38.704 58.5884C38.704 58.6037 39.0567 58.6342 39.072 58.7259C39.1717 59.4668 37.5922 59.78 37.1015 59.78C36.2198 59.78 35.131 59.4286 34.2033 59.505C34.3106 59.864 35.039 59.6272 35.1234 59.6883C35.154 59.7113 34.993 59.9404 35.0313 59.9633C35.062 59.9786 35.6754 60.139 35.7674 60.1467L35.2154 60.4217C36.0664 60.2612 36.8408 60.8112 37.7916 60.7883L37.5155 60.9716L38.5276 61.155C37.5155 61.4758 39.2637 61.6973 39.7467 61.8883C39.8387 61.9265 39.9461 62.1709 40.0764 62.2397C40.1684 62.2855 40.7895 62.2855 40.8278 62.339C40.8891 62.423 40.5288 64.1188 41.0425 64.2868C41.4949 64.432 42.944 64.0806 43.68 64.2181C43.933 64.2639 44.3241 64.791 44.0481 64.9972C45.1981 64.5771 44.8454 65.066 44.9835 65.1653C45.2288 65.3562 45.6505 65.2035 45.8422 65.2646C45.9495 65.3028 45.8422 65.5243 45.9419 65.5548C46.1566 65.6083 46.8083 65.3791 47 65.5548C47.023 65.5778 46.9156 65.784 46.9539 65.8298C47.092 65.9826 47.2836 66.0361 47.414 66.1888C47.506 66.3034 47.437 66.6242 47.46 66.6472C47.483 66.6701 47.782 66.6319 47.92 66.693C47.966 66.7159 47.6057 67.2506 47.3143 67.3728C45.3822 68.2207 39.3404 68.7096 37.0248 68.8471C30.017 69.2596 22.5414 68.7631 15.5105 68.4804C11.6002 68.3277 7.65152 67.9992 3.74888 67.7548C2.65246 67.686 1.04234 67.4416 0.39062 68.2895C0.842989 67.2888 0.145268 67.6555 0.114599 67.3728C0.114599 67.3576 0.298613 67.3881 0.329282 67.2583C0.536298 66.2576 0.0685949 66.5784 0.0225913 65.952C-0.000410518 65.6541 0.0685949 64.6153 0.482627 64.8979C0.0532604 64.6 0.520964 64.7986 0.589969 64.6611C0.704978 64.4243 0.689644 64.0653 0.881325 63.8209C0.911995 63.7827 1.64039 63.4237 1.77073 63.332C1.78606 63.3244 1.64805 63.0875 1.67872 63.0646C1.76306 63.0035 2.85948 62.7667 3.0435 62.7514C6.5321 62.4459 11.3625 63.2021 14.8664 63.416C15.6945 63.4618 16.5609 63.2556 17.3966 63.3396L16.5686 63.523H21.4373L20.9772 63.7063L24.6039 63.8896L24.5579 63.7063C25.6389 63.9125 27.1647 64.0042 28.4222 63.8896L28.2381 64.0729C28.9819 64.0577 29.7409 63.9889 30.4847 63.9889C30.6763 63.9889 30.799 64.1646 30.8987 64.1646C30.914 64.1646 30.8987 63.8896 31.1287 63.8896C31.259 63.8896 31.0214 64.0729 31.1287 64.0729C31.5734 64.0729 32.0181 64.0729 32.4628 64.0729L32.2788 63.8896C32.7388 63.6604 32.4858 64.0271 32.5548 64.0729C32.7695 64.2104 32.7695 63.8132 32.8692 63.8056C32.9535 63.8056 33.8122 63.9813 33.8813 64.1646C33.7816 63.6834 34.0729 64.05 34.1113 63.9813C34.2646 63.6757 32.5088 63.5611 32.2711 63.7063L32.4551 63.523C29.5262 63.2632 26.6203 62.4077 23.6761 62.1404C23.4538 62.1174 22.572 62.2855 22.411 62.2244C22.1503 62.1251 22.204 61.5598 21.2149 61.7126C20.8469 61.7661 20.9926 62.0411 20.9696 62.0563C20.5172 62.3237 20.5785 61.1473 20.6092 60.9182C20.6399 60.689 20.9772 60.1314 20.9772 60.0932C20.9772 60.0092 20.5325 60.1085 20.7012 59.864C20.7626 59.7724 21.0616 59.8793 21.0692 59.864C21.3606 59.3446 20.7702 58.9321 22.1733 58.9474L21.8053 58.6724L23.1854 58.5807L22.9094 58.3058L23.6454 58.3974L23.3694 58.1224C24.4505 57.8474 25.5469 58.2599 26.5897 58.1224H26.1296C26.421 57.8627 26.8044 58.2446 27.1877 58.3134C27.3717 58.3439 27.2644 58.0919 27.4101 58.1224C27.4561 58.1301 27.8394 58.5807 28.3302 58.3439C28.1998 58.9321 28.6292 58.2141 28.9742 58.4814L28.7902 58.2064L29.5722 58.3898L29.5262 58.5655L30.0783 58.3821L9.94404 52.5233C10.4347 51.7212 10.1971 50.2928 10.5728 49.5289C10.9791 48.6887 12.3132 48.047 13.2563 48.3144L13.0723 48.4977L13.5323 48.5894L13.2563 48.681C13.54 48.6428 13.5783 48.7956 13.8313 48.6123C14.138 48.7421 14.023 48.9102 14.4524 48.8644L14.3604 49.0477C14.6594 49.1928 16.3539 48.9866 15.8325 49.506L17.0286 49.5977L16.5686 49.781H17.3046L17.2126 49.9643L19.2368 50.331L18.9607 50.5143C20.0725 50.3615 21.0079 51.2476 21.997 51.156L21.905 51.3393L23.9291 51.7976L23.8371 51.9809L25.3092 52.1643L25.1252 52.3476L29.5416 53.4476L29.4496 53.6309C29.9786 53.6156 30.431 53.8524 30.9217 53.9975C30.96 54.0052 30.9447 54.1732 31.0137 53.9975L30.983 54.0128ZM15.7252 49.3456C15.5948 49.338 15.4875 49.2463 15.3571 49.2539C15.3188 49.3685 15.7558 49.5289 15.7252 49.3456ZM17.0593 49.8879V49.9796L17.1053 49.9338L17.0593 49.8879ZM30.523 58.4967C30.477 58.5349 30.155 58.5196 30.155 58.5425C30.1703 58.6953 30.5 58.6877 30.523 58.4967ZM23.6301 58.5884H23.4461V58.68H23.6301V58.5884ZM30.983 58.5884C30.7607 58.5578 30.5 58.5884 30.523 58.8634C30.6763 58.8481 30.8603 58.6877 30.983 58.5884ZM31.259 58.7717H31.075V58.8634H31.259V58.7717ZM31.167 58.955V59.0467H32.0871V58.955H31.167ZM32.1791 59.23C32.1791 59.23 31.9184 59.2224 31.9031 59.23C31.7421 59.3522 32.3401 59.337 32.1791 59.23ZM33.4672 59.23C33.4672 59.23 33.2065 59.2224 33.1912 59.23C33.0302 59.3522 33.6282 59.337 33.4672 59.23ZM33.9733 59.3217V59.4134L34.0193 59.3675L33.9733 59.3217ZM16.3232 63.4389V63.5306L16.3692 63.4848L16.3232 63.4389ZM19.1678 63.6223V63.7139L19.2138 63.6681L19.1678 63.6223ZM35.3534 63.9889V64.0806L35.3994 64.0347L35.3534 63.9889ZM36.0894 64.0806V64.1722L36.1354 64.1264L36.0894 64.0806ZM40.6361 64.3556V64.1722H40.5441V64.3556H40.6361ZM43.8564 64.8139C43.7184 64.8292 43.4653 64.7375 43.4883 64.9056C43.6264 64.8903 43.8794 64.9819 43.8564 64.8139ZM44.1784 67.7395V67.8312L44.2244 67.7853L44.1784 67.7395ZM18.0177 67.8312C18.0177 67.8312 17.757 67.8235 17.7417 67.8312C17.5806 67.9534 18.1787 67.9381 18.0177 67.8312ZM18.9377 67.9228H18.7537V68.0145H18.9377V67.9228ZM21.0539 67.9228C20.9159 67.9381 20.6629 67.8464 20.6859 68.0145C20.8239 67.9992 21.0769 68.0909 21.0539 67.9228ZM21.4219 67.9228H21.2379V68.0145H21.4219V67.9228ZM20.4099 68.0145C20.2642 68.045 19.9345 67.9228 19.9498 68.1061C20.0725 68.0756 20.4175 68.1978 20.4099 68.0145ZM22.8481 68.0145V68.1061L22.8941 68.0603L22.8481 68.0145ZM23.6301 68.0145C23.4921 68.0298 23.2391 67.9381 23.2621 68.1061C23.4001 68.0909 23.6531 68.1825 23.6301 68.0145ZM37.5999 68.0145V68.1061H38.3359V68.0145H37.5999ZM24.7342 68.2895C24.6345 68.0068 24.3892 68.1443 24.1822 68.1978C24.2205 68.3582 24.6115 68.1978 24.7342 68.2895ZM25.5623 68.1061C25.3629 68.1673 24.7572 67.9381 24.8262 68.2895C25.0102 68.2207 25.4549 68.2895 25.5623 68.1061ZM34.6633 68.2895V68.1061H34.5713V68.2895H34.6633ZM35.7674 68.1061C35.7674 68.1061 35.5757 68.068 35.5834 68.152C35.5681 68.3353 35.6064 68.3277 35.7214 68.1978C35.7521 68.1749 35.7827 68.1367 35.7674 68.1061ZM36.6875 68.1061V68.1978H37.4235V68.1061H36.6875ZM23.4461 68.1978H23.2621V68.2895H23.4461V68.1978ZM23.6761 68.1978V68.2895L23.7221 68.2436L23.6761 68.1978ZM27.3027 68.2895C26.812 68.2513 26.329 68.152 25.8306 68.1978C26.2677 68.2971 26.858 68.4041 27.3027 68.2895ZM27.4101 68.1596L27.3947 68.2895L28.3071 68.3888L28.3225 68.2589L27.4101 68.1596ZM35.3534 68.1978V68.2895L35.3994 68.2436L35.3534 68.1978ZM31.3511 68.2895L30.247 68.3811C30.5153 68.236 31.3741 68.702 31.3511 68.2895ZM31.6731 68.2895V68.3811L31.7191 68.3353L31.6731 68.2895ZM32.4551 68.2895V68.3811H33.9273V68.2895H32.4551ZM28.7749 68.3811C28.6368 68.3964 28.3838 68.3048 28.4068 68.4728C28.5448 68.4575 28.7979 68.5492 28.7749 68.3811Z" fill="#005D71"/>
<path d="M77.6849 32.4946L76.5425 34.1904L75.2007 35.6952C75.9597 34.5876 76.7495 33.4571 77.6849 32.4946Z" fill="#005D71"/>
<path d="M74.5029 36.7267C74.0889 37.3302 73.7285 38.1933 73.0922 38.6287L75.0243 35.7031C75.5074 36.0927 74.5949 36.5968 74.5029 36.7343V36.7267Z" fill="#005D71"/>
<path d="M95.7947 42.4784C95.856 42.5395 94.6906 43.6777 94.4146 43.6242C94.5142 43.4332 95.718 42.4097 95.7947 42.4784Z" fill="#005D71"/>
<path d="M76.3049 62.3392C76.0979 62.7899 75.0322 62.4462 74.6488 62.2476L76.3049 62.3392Z" fill="#005D71"/>
<path d="M91.1101 45.954C91.1791 45.9005 91.3401 45.5033 91.6621 45.5873C91.5778 45.8699 91.2787 45.8623 91.1101 45.954C90.3357 46.5956 89.5076 47.1227 88.6259 47.6039C89.3926 46.9623 90.236 46.4352 91.1101 45.954Z" fill="#005D71"/>
<path d="M77.9146 62.2472C78.0296 62.2472 78.4973 61.9799 78.6047 62.2472C77.8993 62.1861 77.1479 62.6292 76.4885 62.2472C76.9639 62.232 77.4393 62.2702 77.9146 62.2472Z" fill="#005D71"/>
<path d="M62.3351 12.451L62.1511 13.3676C62.2201 13.1461 61.9671 12.3975 62.3351 12.451Z" fill="#005D71"/>
<path d="M62.6109 10.3426C62.3196 10.2051 62.5649 9.74674 62.5189 9.51758C62.7259 9.6398 62.5573 10.1287 62.6109 10.3426Z" fill="#005D71"/>
<path d="M61.3231 20.869C61.3231 21.0218 61.3384 21.3808 61.139 21.419C61.2464 21.2815 60.9934 20.8002 61.3231 20.869Z" fill="#005D71"/>
<path d="M80.7213 62.0642C80.6139 62.4155 80.0235 62.194 80.2612 62.0642C80.3226 62.026 80.6063 62.0871 80.7213 62.0642Z" fill="#005D71"/>
<path d="M38.3407 59.8307L37.7755 59.9365L37.8024 60.0792L38.3676 59.9734L38.3407 59.8307Z" fill="#005D71"/>
<path d="M36.4084 59.964L36.4083 60.0557L37.1444 60.056L37.1444 59.9644L36.4084 59.964Z" fill="#005D71"/>
<path d="M49.6457 53.1879C49.891 53.4323 49.1243 53.4323 49.3697 53.1879C49.3773 53.1802 49.638 53.1802 49.6457 53.1879Z" fill="#005D71"/>
<path d="M92.7589 44.8541C92.8279 44.9152 92.4905 45.129 92.3908 45.0374C92.3218 44.9763 92.6592 44.7624 92.7589 44.8541Z" fill="#005D71"/>
<path d="M92.122 45.3126C92.1834 45.3737 91.892 45.5646 91.754 45.4959C91.7157 45.3737 92.0837 45.282 92.122 45.3126Z" fill="#005D71"/>
<path d="M49.2773 53.1879C49.2007 53.1803 49.0167 53.2032 49.0013 53.1879C48.848 53.0352 49.1853 52.8748 49.2773 53.1879Z" fill="#005D71"/>
<path d="M72.5399 39.362C72.4556 39.278 72.9233 38.8655 73 38.812C73.069 38.9724 72.5706 39.3849 72.5399 39.362Z" fill="#005D71"/>
<path d="M65.4556 48.7882C65.4556 48.7882 65.5706 48.5132 65.5936 48.5132C65.8543 48.5361 65.5859 48.918 65.4556 48.7882Z" fill="#005D71"/>
<path d="M32.0874 48.1542C32.1641 48.2841 31.796 48.3834 31.8114 48.2001C31.8114 48.1237 32.0797 48.1466 32.0874 48.1542Z" fill="#005D71"/>
<path d="M45.4132 41.3784C45.2445 41.409 45.3442 41.1492 45.3212 41.0118C45.4898 40.9812 45.3902 41.2409 45.4132 41.3784Z" fill="#005D71"/>
<path d="M66.5672 41.4015C66.6307 41.4015 66.6822 41.3502 66.6822 41.2869C66.6822 41.2237 66.6307 41.1724 66.5672 41.1724C66.5036 41.1724 66.4521 41.2237 66.4521 41.2869C66.4521 41.3502 66.5036 41.4015 66.5672 41.4015Z" fill="#005D71"/>
<path d="M12.3214 62.9808C12.3521 63.1488 12.0914 63.0495 11.9534 63.0725C11.9227 62.9044 12.1834 63.0037 12.3214 62.9808Z" fill="#005D71"/>
<path d="M29.8791 63.3475C29.9097 63.5155 29.649 63.4162 29.511 63.4392C29.4804 63.2711 29.741 63.3704 29.8791 63.3475Z" fill="#005D71"/>
<path d="M96.0706 42.2953C96.1013 42.4633 95.8406 42.364 95.7026 42.3869C95.6719 42.2189 95.9326 42.3182 96.0706 42.2953Z" fill="#005D71"/>
<path d="M93.9545 43.9376C93.8931 44.0904 93.6248 44.1744 93.4944 44.3043C93.4561 44.098 93.7704 43.8918 93.9545 43.9376Z" fill="#005D71"/>
<path d="M94.3227 43.67C94.3227 43.67 94.2383 43.9755 94.1386 43.945C94.085 43.7999 94.1693 43.5325 94.3227 43.67Z" fill="#005D71"/>
<path d="M69.3196 43.9374C69.1355 44.1284 69.1355 43.8152 69.2275 43.6624C69.3732 43.6166 69.3272 43.9221 69.3196 43.9374Z" fill="#005D71"/>
<path d="M62.7027 8.60103C62.5953 8.76144 62.58 8.16562 62.7027 8.32603C62.7104 8.34131 62.7104 8.58575 62.7027 8.60103Z" fill="#005D71"/>
<path d="M62.4271 11.5343C62.4424 11.5801 62.3811 11.9162 62.243 11.9009C62.2124 11.794 62.312 11.2669 62.4271 11.5343Z" fill="#005D71"/>
<path d="M61.7827 17.4847C61.9437 17.5917 61.3457 17.607 61.5067 17.4847C61.522 17.4771 61.7674 17.4771 61.7827 17.4847Z" fill="#005D71"/>
<path d="M69.9636 68.0145C70.1246 68.1215 69.5266 68.1367 69.6876 68.0145C69.7029 68.0069 69.9483 68.0069 69.9636 68.0145Z" fill="#005D71"/>
<path d="M88.6257 62.9808C88.7867 63.0878 88.1887 63.103 88.3497 62.9808C88.365 62.9732 88.6104 62.9732 88.6257 62.9808Z" fill="#005D71"/>
<path d="M79.1568 62.1556C79.3179 62.2626 78.7198 62.2778 78.8808 62.1556C78.8962 62.148 79.1415 62.148 79.1568 62.1556Z" fill="#005D71"/>
<path d="M21.4225 61.8807C21.5835 61.9877 20.9854 62.0029 21.1464 61.8807C21.1618 61.8731 21.4071 61.8731 21.4225 61.8807Z" fill="#005D71"/>
<path d="M35.8599 59.956C35.8446 59.7422 36.2356 59.9179 36.228 60.0019C36.228 60.0706 35.9519 59.9179 35.8599 59.956Z" fill="#005D71"/>
<path d="M48.3572 52.0881C48.3572 52.0881 48.3956 52.2714 48.3112 52.2714C48.1502 52.2714 48.1426 51.9276 48.3572 52.0881Z" fill="#005D71"/>
<path d="M68.4916 45.0377C68.4916 45.0377 68.3076 45.0759 68.3076 44.9918C68.3076 44.8314 68.6526 44.8238 68.4916 45.0377Z" fill="#005D71"/>
<path d="M45.1375 41.6538C45.0302 41.8142 45.0148 41.2184 45.1375 41.3788C45.1452 41.394 45.1452 41.6385 45.1375 41.6538Z" fill="#005D71"/>
<path d="M92.3904 45.1293C92.5514 45.2362 91.9533 45.2515 92.1143 45.1293C92.1297 45.1216 92.375 45.1216 92.3904 45.1293Z" fill="#005D71"/>
<path d="M50.2894 42.2954H50.1974V42.4787H50.2894V42.2954Z" fill="#005D71"/>
<path d="M61.5073 9.60938H61.3232V9.70104H61.5073V9.60938Z" fill="#005D71"/>
<path d="M62.0592 14.9185H61.9672V15.1018H62.0592V14.9185Z" fill="#005D71"/>
<path d="M34.2038 41.6538H34.0198V41.7455H34.2038V41.6538Z" fill="#005D71"/>
<path d="M69.8715 43.1201H69.6875V43.2118H69.8715V43.1201Z" fill="#005D71"/>
<path d="M61.8748 17.1182H61.6908V17.2098H61.8748V17.1182Z" fill="#005D71"/>
<path d="M33.5599 40.0952H33.3759V40.1869H33.5599V40.0952Z" fill="#005D71"/>
<path d="M31.9036 47.9707H31.7196V48.0624H31.9036V47.9707Z" fill="#005D71"/>
<path d="M61.3231 20.5938H61.2311V20.7771H61.3231V20.5938Z" fill="#005D71"/>
<path d="M61.1389 21.9688H61.0469V22.1521H61.1389V21.9688Z" fill="#005D71"/>
<path d="M57.4587 22.9771H57.2747V23.0687H57.4587V22.9771Z" fill="#005D71"/>
<path d="M54.7064 29.2944H54.6144V29.4778H54.7064V29.2944Z" fill="#005D71"/>
<path d="M83.1133 62.981H82.9293V63.0726H83.1133V62.981Z" fill="#005D71"/>
<path d="M23.8148 62.6143H23.6307V62.7059H23.8148V62.6143Z" fill="#005D71"/>
<path d="M55.2581 32.2197H55.0741V32.3114H55.2581V32.2197Z" fill="#005D71"/>
<path d="M77.8691 32.2197H77.6851V32.3114H77.8691V32.2197Z" fill="#005D71"/>
<path d="M79.7087 62.1558H79.5247V62.2474H79.7087V62.1558Z" fill="#005D71"/>
<path d="M81.4571 62.064H81.2731V62.1556H81.4571V62.064Z" fill="#005D71"/>
<path d="M79.985 62.064H79.801V62.1556H79.985V62.064Z" fill="#005D71"/>
<path d="M81.7333 61.9727H81.5493V62.0643H81.7333V61.9727Z" fill="#005D71"/>
<path d="M81.1808 61.9727H80.9968V62.0643H81.1808V61.9727Z" fill="#005D71"/>
<path d="M93.1347 44.5791H92.9507V44.6708H93.1347V44.5791Z" fill="#005D71"/>
<path d="M73.6439 56.8467H73.5519V57.03H73.6439V56.8467Z" fill="#005D71"/>
<path d="M73.9201 56.6636H73.7361V56.7552H73.9201V56.6636Z" fill="#005D71"/>
<path d="M49.8296 52.9131H49.6456V53.0048H49.8296V52.9131Z" fill="#005D71"/>
<path d="M34.9857 35.1533L35.0317 35.1992L34.9857 35.245V35.1533Z" fill="#005D71"/>
<path d="M31.0292 35.7949L31.0752 35.8408L31.0292 35.8866V35.7949Z" fill="#005D71"/>
<path d="M80.3071 61.8809L80.3531 61.9267L80.3071 61.9725V61.8809Z" fill="#005D71"/>
<path d="M75.0706 50.1709V50.2549L74.971 50.3466L74.9326 50.3008L75.0706 50.1709Z" fill="#005D71"/>
<path d="M78.007 32.1284L78.053 32.1742L78.007 32.2201V32.1284Z" fill="#005D71"/>
<path d="M78.2825 31.4863L78.3285 31.5322L78.2825 31.578V31.4863Z" fill="#005D71"/>
<path d="M89.0399 62.981L89.0859 63.0268L89.0399 63.0726V62.981Z" fill="#005D71"/>
<path d="M18.5243 63.3472L18.5703 63.393L18.5243 63.4388V63.3472Z" fill="#005D71"/>
<path d="M68.5375 44.6709L68.5835 44.7167L68.5375 44.7626V44.6709Z" fill="#005D71"/>
<path d="M105.31 63.7139L105.356 63.7597L105.31 63.8055V63.7139Z" fill="#005D71"/>
<path d="M49.6913 39.1787L49.7373 39.2245L49.6913 39.2704V39.1787Z" fill="#005D71"/>
<path d="M57.3203 23.252L57.3663 23.2978L57.3203 23.3436V23.252Z" fill="#005D71"/>
<path d="M44.179 39.3618L44.225 39.4076L44.179 39.4535V39.3618Z" fill="#005D71"/>
<path d="M61.0925 21.5103L61.1385 21.5561L61.0925 21.6019V21.5103Z" fill="#005D71"/>
<path d="M72.4017 39.4536L72.4477 39.4994L72.4017 39.5453V39.4536Z" fill="#005D71"/>
<path d="M50.5194 40.8286L50.5654 40.8744L50.5194 40.9203V40.8286Z" fill="#005D71"/>
<path d="M30.201 47.604L30.2471 47.6498L30.201 47.6957V47.604Z" fill="#005D71"/>
<path d="M61.9207 15.3765L61.9667 15.4223L61.9207 15.4681V15.3765Z" fill="#005D71"/>
<path d="M76.5349 47.0542L76.5809 47.1L76.5349 47.1459V47.0542Z" fill="#005D71"/>
<path d="M66.2373 41.6538L66.2833 41.6996L66.2373 41.7455V41.6538Z" fill="#005D71"/>
<path d="M62.0128 13.8262L62.0588 13.872L62.0128 13.9178V13.8262Z" fill="#005D71"/>
<path d="M69.3656 43.1128L69.4116 43.1586L69.3656 43.2045V43.1128Z" fill="#005D71"/>
</g>
<defs>
<clipPath id="clip0_2969_65">
<rect width="106" height="69" fill="white"/>
</clipPath>
</defs>
</svg>
