<svg width="259" height="255" viewBox="0 0 259 255" fill="none" xmlns="http://www.w3.org/2000/svg">
<g clip-path="url(#clip0_2969_596)">
<path d="M128.402 45.8486C129.302 46.6473 128.127 47.2713 130.276 47.1964L128.402 45.8486Z" fill="#2DDFD9"/>
<path d="M96.5542 6.20582L96.7065 6.8623L95.2704 7.19481L95.1181 6.53832L96.5542 6.20582Z" fill="#2DDFD9"/>
<path d="M151.586 48.2446C151.087 48.4443 149.188 47.4459 149.038 47.4459C145.615 47.421 140.943 47.6955 137.245 47.8702C136.67 47.8952 136.795 48.5191 136.745 48.5191C135.796 48.5691 136.42 47.9701 136.07 47.9701C135.846 47.9701 136.045 48.4942 135.746 48.5191C131.223 48.7438 126.626 48.9684 122.103 49.0682C121.979 49.0682 121.279 48.7687 119.905 48.7937C103.639 49.218 84.7751 50.4908 67.8349 53.386C60.3143 54.6589 53.5432 57.3295 46.2224 58.827C46.0475 58.8769 46.1225 59.3012 46.0975 59.3012C45.6478 59.401 45.9476 58.7521 45.6977 58.802C42.9243 59.376 40.3009 59.5757 37.5025 60.4243C37.3776 60.4493 37.5774 61.0483 37.3276 61.173C36.603 61.5724 35.4287 59.5508 36.1033 61.4226C35.1039 60.3744 33.9545 61.8968 33.6547 61.9468C32.8302 62.1464 33.255 61.3478 33.0051 61.4226C32.1556 61.6473 30.0568 62.995 29.8819 63.0449C29.4072 63.1947 29.757 62.421 29.4821 62.5208C28.8825 62.6955 27.908 63.594 27.8081 63.619C19.6378 66.2646 14.6407 66.9634 8.56923 73.9767C7.39491 75.3494 6.52043 79.6423 3.72205 78.6938C3.54715 80.8153 1.42338 82.3877 0.77376 84.3095C-0.475516 88.0283 0.074157 91.0982 0.199085 94.8669C1.52332 94.1681 0.448944 95.5158 1.19851 95.9401C2.79758 96.8636 5.62094 94.5175 4.92135 97.2879C6.02071 94.8918 8.76912 94.4676 10.4431 93.0948C12.467 91.4476 14.0411 89.3012 16.2648 87.579C22.861 82.4126 38.9766 77.7205 47.4467 75.3494C63.9372 70.7321 80.8274 68.1364 97.8175 66.0649C99.2917 67.6373 98.3672 66.1398 98.817 66.0649C102.865 65.2413 110.235 65.2413 114.683 64.9418C126.576 64.193 145.315 62.7953 157.608 64.792C159.082 65.0416 159.557 65.99 159.682 66.015C160.506 66.2646 160.081 65.391 160.356 65.4659C160.456 65.4908 161.106 66.5391 162.38 66.015C162.555 66.3644 160.631 67.2879 160.531 67.3378C158.308 68.1614 154.785 68.2363 152.386 68.985C152.361 69.1847 152.761 69.7088 152.661 69.7837C151.711 70.4077 142.717 70.9068 140.918 71.9551C140.668 70.7072 143.666 71.0815 144.615 70.807C145.69 70.4825 147.689 69.6839 148.613 68.985C146.839 68.9102 142.717 70.832 141.442 70.807C141.117 70.807 141.242 69.9834 140.793 70.0582C140.668 71.6556 140.743 72.9035 138.894 71.8053L140.243 71.1314C135.171 72.03 129.674 73.6772 124.652 75.3494C124.152 75.5241 124.452 76.1481 124.152 76.2479C120.33 77.5957 116.157 77.9701 112.084 79.2429C108.961 80.2163 104.164 81.9384 101.116 83.1364C100.641 83.3112 100.616 84.0599 100.566 84.0849C100.366 84.1847 98.8669 81.7138 99.2167 84.0849L99.7414 83.5607C99.6915 83.7854 99.9913 84.1348 99.9413 84.2346C99.6665 84.8586 90.7466 87.3045 89.1726 87.9035C71.6827 94.6672 55.1672 104.301 40.5257 116.181C38.8017 117.579 37.3776 119.301 35.7535 120.724C35.6036 120.849 35.0539 120.449 35.0039 120.474C34.929 120.549 34.4043 122.121 34.1544 122.346C34.1045 122.396 33.4798 121.997 33.3799 122.097C33.3049 122.171 33.3049 122.87 33.0551 123.095C32.9051 123.245 31.8308 123.419 31.7808 123.444C31.7058 123.519 31.1062 125.316 30.9563 125.466C26.0841 130.383 20.8621 134.226 19.2631 142.088C18.8383 144.16 18.3386 151.448 19.363 153.07C19.4379 153.195 21.137 154.742 21.2369 154.817C24.535 157.263 33.4298 153.744 37.1277 152.396C64.9366 142.313 87.9483 134.451 117.431 128.835C130.024 126.439 144.341 125.017 156.534 124.468C156.683 124.468 156.633 123.968 156.658 123.968C156.908 123.968 157.083 124.393 157.308 124.368C164.829 124.118 172.349 124.068 179.845 124.218L178.496 125.166L179.021 125.566C175.672 126.14 172.149 126.589 168.627 126.664C167.827 126.664 166.703 124.892 166.603 126.913L145.29 129.334C145.64 130.083 144.391 130.458 143.741 130.582C129.574 133.253 116.232 136.148 103.139 140.616C96.2185 142.987 88.9727 145.682 82.4015 148.927C80.6775 149.775 75.7303 153.245 74.681 153.594C73.8065 153.869 74.2312 153.07 73.7565 153.07C73.8564 154.867 71.058 155.616 69.6089 156.539C69.334 156.714 69.459 157.338 69.434 157.363C69.0592 157.637 69.334 156.689 68.9093 156.839C68.8093 156.864 68.2846 158.86 68.1098 156.839C67.9598 159.908 65.1864 160.807 63.9122 162.754C63.6623 163.128 64.0871 163.702 64.0371 163.802C63.3625 164.875 63.6124 164.301 62.9627 165.774C62.6379 166.498 61.6635 166.847 61.6385 166.947C61.5386 167.321 61.6885 174.459 61.8134 174.834C63.0627 178.253 68.2597 175.982 70.6833 175.982C92.1958 175.832 126.726 181.273 146.215 190.557C146.364 190.632 147.389 191.955 148.788 192.579C149.113 192.729 150.862 192.654 150.962 192.704C151.012 192.704 150.837 193.403 151.137 193.527C156.359 195.998 161.656 198.419 166.878 200.516C166.478 201.963 167.877 201.265 167.952 201.314C168.002 201.339 167.902 202.088 167.952 202.138C168.102 202.238 168.527 201.839 168.701 201.938C170.151 202.787 171.575 203.91 173.049 204.734C174.998 203.336 174.948 207.429 175.897 205.383L195.311 217.238C197.51 216.913 198.359 218.361 200.033 219.659H197.61L198.134 219.933C198.459 220.707 194.337 219.434 194.137 219.334C194.012 219.26 194.137 218.611 194.087 218.586C194.037 218.561 193.487 218.91 193.262 218.76C192.937 218.511 192.713 216.414 192.463 218.86C191.363 217.862 189.14 217.637 187.79 217.188C187.316 217.038 187.366 216.439 187.341 216.439C186.891 216.29 187.216 217.063 186.941 216.963C184.742 216.215 182.668 214.992 180.395 214.343C175.448 212.97 169.301 211.822 164.204 210.824C162.93 210.574 161.256 210.899 160.181 210.549C159.532 210.324 159.907 209.75 159.832 209.676C158.957 209.002 159.607 210.449 159.557 210.474C158.482 211.398 159.107 209.526 158.607 209.401C158.233 209.326 157.633 210.449 157.533 210.474C156.958 210.599 157.083 209.526 156.284 209.326C155.234 209.077 142.492 208.577 141.892 208.952C141.292 209.326 141.617 210 141.417 210.15C139.918 211.273 139.843 211.448 138.669 212.671C138.369 212.995 137.47 212.87 137.42 212.92C137.17 213.22 137.669 214.293 137.644 214.418C137.595 214.567 137.295 214.293 137.12 215.216C137.02 215.74 137.794 215.341 137.669 216.14C137.669 216.29 136.32 217.537 136.345 218.76C136.345 218.96 138.619 221.581 138.869 221.83C139.119 222.08 139.518 221.805 139.543 221.83C139.618 221.905 139.418 222.704 139.818 223.053C140.143 223.328 142.142 223.328 142.841 223.527C143.266 223.627 143.516 224.176 143.716 224.226C143.866 224.251 144.141 223.677 144.391 223.727C144.491 223.727 144.141 224.176 144.665 224.276C144.715 224.276 144.466 223.677 144.94 223.752C144.965 223.752 144.865 224.251 145.115 224.301C148.938 224.875 152.361 225.524 156.059 226.522C168.901 229.967 181.044 234.384 193.037 240C193.862 240.399 195.261 240.449 195.386 240.499C195.486 240.549 195.561 241.448 195.711 241.522C201.283 244.193 220.846 254.825 225.519 255.025C228.392 255.15 233.039 251.431 234.888 249.359C235.438 248.76 235.188 248.062 235.363 247.812C235.463 247.687 236.187 247.937 236.662 247.363C236.887 247.063 237.761 240.399 237.761 239.85C237.861 234.759 232.864 232.038 231.265 227.845L230.741 228.12V225.699C231.315 227.271 231.29 225.948 231.69 225.973C231.99 225.973 232.664 226.822 233.839 226.148C235.538 225.2 233.589 223.927 235.863 224.326C231.615 221.082 237.287 224.002 237.487 223.802C237.587 223.702 237.387 222.854 237.487 222.729C237.487 222.704 238.261 223.078 238.286 222.604C238.336 221.73 236.162 221.306 235.588 220.982C235.263 220.807 235.363 220.108 235.313 220.033C235.013 219.709 235.238 220.782 234.663 220.557C233.014 219.933 231.265 219.484 229.666 218.81C227.542 217.912 220.546 214.792 218.548 213.02C216.099 210.849 213.326 206.606 210.902 204.135C203.306 196.348 195.161 188.436 187.266 181.273C187.216 181.223 186.441 181.498 186.041 181.148C184.043 179.326 181.494 177.18 179.645 175.308C179.07 174.734 177.696 173.461 177.197 172.862C175.672 171.065 176.772 169.942 176.247 169.243C175.273 167.97 174.823 170.616 174.598 170.691C174.273 170.815 172.274 169.318 172.474 171.789C171.85 170.691 170.75 171.913 169.801 172.213C169.476 172.313 169.026 171.589 168.701 171.789C168.527 171.889 166.503 175.133 166.278 173.136C166.753 175.982 163.979 174.609 163.854 174.759C163.654 174.958 163.554 179.401 161.955 179.601C162.13 179.102 162.505 179.301 161.88 179.126C153.061 176.581 143.791 171.639 134.471 168.918C124.102 165.899 110.585 165.025 101.341 161.88C100.416 161.556 99.6915 160.932 99.0918 160.208C107.812 156.19 117.056 153.319 126.401 150.973C137.17 148.278 148.588 146.431 159.432 144.609C161.281 144.309 163.604 144.334 165.578 144.06C165.853 144.01 165.578 144.659 166.003 144.584C166.053 144.584 165.853 143.96 166.728 143.835C180.12 142.013 195.361 140.666 209.078 140.116C219.722 139.667 246.781 142.013 254.202 135.524C259.424 131.007 258.999 119.027 253.727 115.133C252.303 114.085 246.381 112.787 244.583 112.762C244.458 112.762 243.283 113.885 242.284 113.236C242.184 113.161 242.459 110.641 241.334 112.962C241.209 111.564 240.66 112.962 239.585 112.163L240.135 113.511L228.917 112.987C227.542 112.912 227.592 111.339 227.318 112.987L227.168 111.115C226.993 113.186 223.645 112.662 222.595 111.664C223.37 111.913 224.944 111.015 224.219 110.316C223.969 110.092 222.845 110.566 222.72 110.541C222.495 110.491 218.723 109.093 219.822 110.865C219.847 110.915 220.646 110.89 220.696 111.265C220.746 111.589 219.297 111.714 219.222 111.664C219.072 111.564 219.497 109.443 217.198 110.042C216.799 110.666 218.498 110.89 217.998 111.389C217.298 112.088 216.474 111.14 216.374 111.115C216.324 111.115 216.449 112.138 215.824 111.639C215.2 111.14 216.749 109.992 216.374 109.767C216.149 109.642 211.352 109.143 211.127 109.218C210.652 109.393 211.527 110.541 211.127 110.84C209.978 107.521 208.678 110.191 207.904 110.067C207.304 109.967 207.404 109.343 207.054 109.293C199.459 108.27 191.463 109.193 184.168 108.968C184.018 108.968 184.168 108.344 183.193 108.319C172.224 108.045 161.256 107.97 150.162 108.744C134.122 109.867 117.931 112.837 101.59 115.807C99.5915 116.181 96.7432 116.181 94.8443 116.556C94.6444 116.581 94.7443 117.03 94.7193 117.055C94.1946 117.155 94.7193 116.431 94.1946 116.531C94.1697 116.531 94.3446 116.98 93.7949 117.105C81.1522 119.551 67.5101 123.644 55.3921 125.691C54.1928 125.89 54.0929 125.042 53.968 125.166C53.893 125.241 54.0179 125.94 53.968 125.965C53.868 126.015 53.2434 124.892 52.094 126.514V124.892L52.8936 125.691C52.144 124.043 55.0673 123.344 55.517 122.92C63.7873 115.483 74.7059 110.641 85.1499 106.273C91.871 103.478 99.1418 101.156 106.188 98.6606C106.388 98.5857 106.288 98.1864 106.313 98.1864C106.712 98.0366 106.463 99.0849 107.262 98.7354C107.487 98.6356 107.537 97.9368 107.937 97.787C119.88 93.619 131.023 90.1747 143.416 87.4542C154.909 84.9334 174.248 85.7072 178.296 71.8303C178.421 71.431 179.27 65.8652 179.17 65.5657C179.17 65.4909 178.496 66.2396 178.221 64.7671C176.972 58.6023 177.796 56.5557 172.174 52.213C169.676 50.2662 164.604 49.0183 161.481 48.594C161.031 48.5441 160.181 49.1681 159.882 49.1181C159.582 49.0682 159.832 48.3694 159.757 48.3195C159.082 47.9701 159.307 48.8686 159.082 48.8686C158.332 48.8686 158.882 48.3195 158.532 48.3195C158.308 48.3195 158.482 48.8686 158.208 48.8686C157.408 48.8686 155.284 48.7937 154.56 48.7188C154.11 48.6689 154.06 48.1198 154.035 48.1198C153.71 48.0699 152.461 48.3943 152.086 48.3195C151.711 48.2446 152.111 47.4709 151.786 47.4958C151.486 47.5208 151.761 48.2446 151.636 48.2945L151.586 48.2446ZM43.549 60.1248V60.3993L43.4241 60.2745L43.549 60.1498V60.1248ZM162.28 67.1381V67.4126L162.155 67.2879L162.28 67.1631V67.1381ZM200.708 110.266C200.058 109.193 203.107 109.867 203.406 109.742C202.707 112.313 202.432 110.017 202.332 110.017C201.982 109.967 201.008 110.79 200.708 110.291V110.266ZM181.694 109.468V109.742L181.569 109.617L181.694 109.493V109.468ZM203.681 109.717C203.681 109.717 205.055 109.792 205.03 110.241C204.306 110.74 202.932 110.241 203.681 109.717ZM199.833 109.992C199.833 109.817 199.983 109.667 200.158 109.667C200.333 109.667 200.483 109.817 200.483 109.992C200.483 110.166 200.333 110.316 200.158 110.316C199.983 110.316 199.833 110.166 199.833 109.992ZM198.035 109.992C198.409 109.967 198.734 109.692 199.109 109.717C199.234 110.067 197.935 110.541 198.035 109.992ZM196.66 109.717C196.66 109.717 197.46 109.617 197.46 109.842C197.46 110.366 196.086 110.366 196.66 109.717ZM194.786 109.717H195.311V109.992H194.786V109.717ZM190.589 109.717V109.992L190.464 109.867L190.589 109.742V109.717ZM213.675 109.992C213.9 109.692 215.324 110.391 214.475 111.339C213.975 111.439 214.4 110.84 214.075 110.79C213.775 110.74 214.175 111.464 213.675 111.339C213.725 111.04 213.575 110.116 213.675 109.992ZM212.326 109.992C212.501 109.842 213.451 109.892 213.126 110.516C212.876 111.015 211.702 110.541 212.326 109.992ZM211.926 109.992V110.266L211.802 110.141L211.926 110.017V109.992ZM210.028 109.992V110.266L209.903 110.141L210.028 110.017V109.992ZM196.261 109.992V110.266L196.136 110.141L196.261 110.017V109.992ZM195.736 109.992V110.266L195.611 110.141L195.736 110.017V109.992ZM193.037 109.992V110.266L192.912 110.141L193.037 110.017V109.992ZM207.729 110.266C207.729 110.266 208.304 110.166 208.279 110.391C208.329 110.915 208.204 110.915 207.879 110.516C207.779 110.441 207.679 110.341 207.754 110.241L207.729 110.266ZM206.929 110.266C206.929 110.266 207.504 110.166 207.479 110.391C207.529 110.915 207.404 110.915 207.079 110.516C206.979 110.441 206.879 110.341 206.954 110.241L206.929 110.266ZM206.13 110.79V110.266H206.405V110.79H206.13ZM210.028 110.541V110.815L209.903 110.691L210.028 110.566V110.541ZM221.221 111.614V111.09H221.496V111.614H221.221ZM218.398 111.065V111.339L218.273 111.215L218.398 111.09V111.065ZM222.046 111.889V111.364H222.32V111.889H222.046ZM240.385 113.511C240.385 113.511 241.16 113.486 241.185 113.511C241.659 113.86 239.885 113.835 240.385 113.511ZM244.308 114.035V114.309L244.183 114.185L244.308 114.06V114.035ZM180.62 124.293V124.567L180.495 124.443L180.62 124.318V124.293ZM177.921 126.439V126.714L177.796 126.589L177.921 126.464V126.439ZM175.348 171.19V170.666H175.622V171.19H175.348ZM148.788 191.681V191.955L148.663 191.83L148.788 191.705V191.681ZM150.137 191.93V192.205L150.012 192.08L150.137 191.955V191.93ZM148.638 210V209.476H148.913V210H148.638ZM148.113 210V209.476H148.388V210H148.113ZM147.689 209.451V209.725L147.564 209.601L147.689 209.476V209.451ZM146.764 210V209.476H147.039V210H146.764ZM144.99 209.451V209.725L144.865 209.601L144.99 209.476V209.451ZM142.442 210V209.476H142.717V210H142.442ZM156.209 210.275C156.209 210.275 156.109 209.725 156.334 209.75C156.808 209.75 156.833 210.749 156.209 210.275ZM154.31 210.275C154.51 209.526 155.134 210 155.659 210C155.684 210.549 154.685 210.175 154.31 210.275ZM153.51 209.725C153.51 209.725 154.085 209.626 154.06 209.85C154.11 210.374 153.985 210.374 153.66 209.975C153.56 209.9 153.46 209.8 153.535 209.701L153.51 209.725ZM150.937 209.725V210L150.812 209.875L150.937 209.75V209.725ZM149.313 209.725V210L149.188 209.875L149.313 209.75V209.725ZM144.466 209.725V210L144.341 209.875L144.466 209.75V209.725ZM158.482 210.275V210.549L158.357 210.424L158.482 210.3V210.275ZM199.908 219.983C200.158 220.133 201.483 219.634 201.532 219.709C201.907 220.607 200.383 220.233 199.908 219.983ZM199.084 220.233C199.084 220.233 199.309 221.032 199.234 221.032C198.859 221.082 198.634 219.884 199.084 220.233ZM233.514 222.13V222.404L233.389 222.28L233.514 222.155V222.13Z" fill="#2DDFD9"/>
<path d="M224.47 110.266C224.02 110.566 224.82 111.04 225.27 110.79C225.245 110.466 224.72 110.091 224.47 110.266Z" fill="#2DDFD9"/>
<path d="M222.298 14.3511C222.118 14.3511 221.973 14.2058 221.973 14.0266C221.973 13.8474 222.118 13.7021 222.298 13.7021C222.477 13.7021 222.622 13.8474 222.622 14.0266C222.622 14.2058 222.477 14.3511 222.298 14.3511Z" fill="#2DDFD9"/>
<path d="M127.052 48.2688C127.152 48.9427 128.301 48.4435 127.852 47.9943C127.777 47.9194 127.302 48.3437 127.052 48.2688Z" fill="#2DDFD9"/>
<path d="M51.4955 56.6802C51.3162 56.6802 51.1707 56.5349 51.1707 56.3557C51.1707 56.1765 51.3162 56.0312 51.4955 56.0312C51.6749 56.0312 51.8204 56.1765 51.8204 56.3557C51.8204 56.5349 51.6749 56.6802 51.4955 56.6802Z" fill="#2DDFD9"/>
<path d="M180.744 214.093C180.565 214.093 180.42 213.948 180.42 213.769C180.42 213.59 180.565 213.444 180.744 213.444C180.924 213.444 181.069 213.59 181.069 213.769C181.069 213.948 180.924 214.093 180.744 214.093Z" fill="#2DDFD9"/>
<path d="M160.258 210.275C160.258 210.275 161.057 210.374 161.057 210.15C161.107 209.626 160.033 209.9 160.258 210.275Z" fill="#2DDFD9"/>
<path d="M119.78 0.000164114C119.306 0.324623 121.055 0.349582 120.58 0.000164114C120.555 -0.0247943 119.83 -0.0247943 119.78 0.000164114Z" fill="#2DDFD9"/>
<path d="M177.247 125.092H177.521V125.616H177.247V125.092Z" fill="#2DDFD9"/>
<path d="M237.937 223.478H238.211V224.002H237.937V223.478Z" fill="#2DDFD9"/>
<path d="M194.787 218.885H195.312V219.159H194.787V218.885Z" fill="#2DDFD9"/>
<path d="M191.564 217.537H192.088V217.812H191.564V217.537Z" fill="#2DDFD9"/>
<path d="M166.205 210.55H166.729V210.824H166.205V210.55Z" fill="#2DDFD9"/>
<path d="M226.068 111.34H226.343V111.864H226.068V111.34Z" fill="#2DDFD9"/>
<path d="M145.965 94.6416H146.49V94.9161H145.965V94.6416Z" fill="#2DDFD9"/>
<path d="M258.475 196.248H259V196.523H258.475V196.248Z" fill="#2DDFD9"/>
<path d="M60.9395 171.189H61.2144V171.714H60.9395V171.189Z" fill="#2DDFD9"/>
<path d="M54.8679 125.092L54.743 125.217L54.8679 125.366V125.092Z" fill="#2DDFD9"/>
<path d="M176.023 124.817L175.898 124.967L176.023 125.092V124.817Z" fill="#2DDFD9"/>
<path d="M113.435 180.898L113.285 181.023L113.435 181.148V180.898Z" fill="#2DDFD9"/>
<path d="M141.219 209.201L141.094 209.326L141.219 209.451V209.201Z" fill="#2DDFD9"/>
<path d="M157.684 209.476L157.41 209.725V210L157.559 209.875L157.684 209.476Z" fill="#2DDFD9"/>
<path d="M72.1577 94.8916L72.0078 95.0414L72.1577 95.1661V94.8916Z" fill="#2DDFD9"/>
<path d="M140.944 69.0352L140.819 69.1599L140.944 69.2847V69.0352Z" fill="#2DDFD9"/>
<path d="M37.0779 60.3994L36.928 60.5242L37.0779 60.674V60.3994Z" fill="#2DDFD9"/>
<path d="M164.431 210.274L164.281 210.399L164.431 210.549V210.274Z" fill="#2DDFD9"/>
<path d="M50.2954 56.0811L50.1455 56.2308L50.2954 56.3556V56.0811Z" fill="#2DDFD9"/>
<path d="M186.293 215.665L186.143 215.79L186.293 215.94V215.665Z" fill="#2DDFD9"/>
<path d="M188.167 216.19L188.042 216.34L188.167 216.465V216.19Z" fill="#2DDFD9"/>
<path d="M196.812 219.16L196.662 219.31L196.812 219.435V219.16Z" fill="#2DDFD9"/>
<path d="M132.323 47.9951L132.173 48.1449L132.323 48.2697V47.9951Z" fill="#2DDFD9"/>
<path d="M133.672 47.9951L133.522 48.1449L133.672 48.2697V47.9951Z" fill="#2DDFD9"/>
</g>
<defs>
<clipPath id="clip0_2969_596">
<rect width="259" height="255" fill="white" transform="matrix(-1 0 0 1 259 0)"/>
</clipPath>
</defs>
</svg>
