<svg width="330" height="82" viewBox="0 0 330 82" fill="none" xmlns="http://www.w3.org/2000/svg">
<g clip-path="url(#clip0_2969_567)">
<path d="M213.971 75.145C214.156 75.4087 213.892 76.2261 213.417 76.2788C213.205 75.8569 213.549 74.5122 213.971 75.145Z" fill="white"/>
<path d="M174.024 63.7803H173.469V64.0703H174.024V63.7803Z" fill="white"/>
<path d="M308.099 45.5879C308.099 45.5879 307.491 45.4297 308.099 45.2979V45.5879Z" fill="white"/>
<path d="M228.23 63.4902C228.388 63.4639 228.811 63.4111 228.811 63.6221C228.811 63.8594 228.388 63.7803 228.23 63.7539V63.4639V63.4902Z" fill="white"/>
<path d="M227.94 63.7802C210.513 70.3983 193.695 78.9938 175.08 81.3931C174.816 81.4195 174.922 81.9468 174.896 81.9732C174.394 82.0259 174.737 81.3667 174.447 81.3931C171.49 81.6831 167.344 82.2368 164.413 81.8941C148.968 80.1802 137.667 68.3944 133.548 53.8928C132.545 50.3597 132.677 42.0806 131.357 39.6548C130.697 38.4684 128.822 38.1256 127.66 38.7847L127.819 38.2311C123.753 37.9674 119.607 37.8092 115.515 38.1256C107.171 38.7584 98.3527 41.1841 90.0885 42.7925C89.7716 42.8452 89.9036 43.3462 89.8772 43.3462C89.3492 43.4516 89.7716 42.7134 89.4548 42.7925C78.1278 45.0336 66.2992 47.0902 55.2098 50.1751C54.3649 50.4124 53.8633 51.2825 53.7576 51.3089C53.52 51.388 50.7741 51.2561 50.0084 51.4934C47.8433 52.179 46.2063 53.9192 44.2261 53.5764C45.203 53.9719 45.5462 55.2111 45.6519 55.2638C46.0743 55.5275 45.6783 54.3674 46.4968 54.7102C46.5232 54.7102 46.3911 55.1847 46.8928 55.3429C48.7146 55.8439 51.0117 56.5558 52.7015 56.9777C53.9161 57.2677 55.421 57.1886 56.8732 57.5841C57.1373 57.6632 56.8732 56.8722 57.3221 57.004C57.5597 57.0568 60.5961 58.9024 61.8106 59.2452C66.4576 60.5108 82.1147 63.5429 84.9134 66.4433C85.0982 66.6278 85.7319 68.579 85.9168 68.869C86.0224 69.0536 86.8409 69.4491 86.8937 69.5809C87.1841 70.161 86.656 70.8201 86.6824 70.9256C86.7353 71.0838 88.8211 71.1892 87.5801 73.5886C86.3392 75.988 78.8143 75.197 76.3588 74.8278C68.9131 73.6941 61.0977 70.6356 53.3352 69.0536C42.5891 66.8651 12.9119 63.9912 5.62459 58.1378C2.69384 55.7912 -0.817791 47.6175 0.106321 43.8999C1.03043 40.1822 3.80277 40.7359 5.75661 39.1011C9.18902 36.2272 11.9878 33.0632 15.7106 30.3475C15.869 30.242 16.3707 30.6639 16.5027 30.5584C16.6347 30.4793 16.0803 29.8465 16.5027 29.5565C16.846 29.3192 17.6381 29.4246 18.0341 29.161C18.3509 28.95 19.0638 27.7899 19.4599 27.5262C19.6447 27.3944 21.0177 27.4735 21.0705 27.4471C21.1497 27.3944 20.78 26.7089 20.912 26.577C22.153 25.5487 22.6283 27.1044 23.2091 25.1796L23.4732 25.7333C23.9748 24.415 25.5062 24.6786 25.6118 24.5995C25.691 24.5468 25.5326 23.7822 25.6118 23.7558C25.7702 23.6503 26.3775 24.0986 26.4567 24.0458C26.5095 24.0195 26.4303 23.2285 26.7208 23.0175C27.064 22.7802 27.7505 23.3867 28.1729 23.0703C28.2785 22.9912 28.8858 21.2246 29.5987 20.9082C30.3908 20.5655 30.074 21.5674 30.3116 21.4619C30.6284 21.3301 30.3644 20.6446 30.4436 20.5918C30.7076 20.5127 31.4205 20.9873 31.711 20.8819C32.2918 20.6709 31.8166 19.8799 31.8958 19.8008C33.2159 18.9571 35.4338 18.4298 36.622 17.6915C46.9456 11.0999 56.1603 6.51208 68.1474 2.37253C70.4973 1.55517 73.164 -0.976021 75.8835 0.447773C76.306 0.685072 76.5964 2.02977 77.7054 2.3198C78.7087 2.58346 80.0816 2.0825 80.3193 2.13523C80.3985 2.13523 80.4777 2.76803 80.6097 2.7944C84.3062 3.69086 82.2995 3.84906 83.25 4.58732C83.7781 4.98282 85.3359 4.74552 86.0488 5.35195C86.2336 5.51015 88.7155 8.9378 88.7683 9.14874C90.1941 14.633 86.128 13.5256 82.5107 15.213C73.7449 19.2735 64.2661 24.1777 56.6092 29.3455C56.4772 29.451 53.4936 29.7674 54.3649 31.3494C54.8402 32.1931 57.1901 30.7957 57.3485 30.7693C57.6389 30.7429 57.1637 31.5076 58.0614 31.323C58.6158 31.2175 61.6786 29.741 62.2067 29.6356C63.7381 29.2664 63.8173 30.242 64.0549 30.1893C64.0549 30.1893 64.0285 29.7147 64.1077 29.6883C65.5335 29.4774 67.1177 29.4774 68.4906 29.2664C68.7019 29.2401 68.5962 28.7655 68.6226 28.7655C69.5732 28.6073 68.9923 29.3719 69.3355 29.3192C69.5468 29.2928 69.3355 28.7655 70.1012 28.6336C71.6062 28.3963 73.164 28.7127 75.0122 28.4227C76.2796 28.2118 76.5436 27.3417 76.6228 27.3417C77.1509 27.2362 76.7284 27.9745 77.0453 27.8954C77.8374 27.7372 77.1245 27.368 77.3093 27.3417C77.7582 27.2626 78.9199 27.4471 79.5272 27.3417C96.3724 23.9931 130.644 17.7179 142.578 35.0934C148.572 43.8471 143.529 51.678 146.644 60.0362C149.918 68.8426 165.311 66.1796 171.622 64.7558C172.282 64.5976 172.123 64.0175 172.176 64.0175C172.387 63.9648 172.651 64.5449 173.047 64.4394C174.156 64.1494 174.288 63.6748 174.711 63.5429C177.219 62.8311 178.671 62.0928 180.625 61.4864C182.104 61.0118 184.48 60.8272 186.117 60.2735C186.223 60.2471 185.985 59.5352 186.275 59.4298C186.803 59.2452 187.912 59.7198 187.992 59.6934C188.863 59.4034 193.299 58.0323 193.536 57.8741C193.932 57.6105 193.51 57.1886 193.536 56.8722C194.46 57.8478 198.051 56.2394 199.556 55.6857C200.058 55.5011 200.586 54.631 200.665 54.6047C201.167 54.4201 200.718 55.3429 201.22 55.1584C201.246 55.1584 201.114 54.7102 201.404 54.5783C202.355 54.2356 204.15 53.9455 205.206 53.5764C205.497 53.4709 205.682 52.7063 205.946 52.6008C206.21 52.4954 205.972 53.26 206.236 53.1809C206.527 53.0754 207.319 52.4426 207.372 52.4163C208.243 52.0735 209.563 51.7307 210.857 51.2298C211.306 51.0452 212.098 51.2298 212.758 50.9661C213.022 50.8606 212.89 50.096 212.916 50.0696C213.391 49.8587 213.022 50.8606 213.471 50.6233C214.342 50.2015 215.926 49.4368 216.718 48.9095C217.51 48.3822 215.451 47.9603 218.038 48.3294L217.748 47.7757C220.23 48.804 221.233 46.9584 222.738 46.352C223.398 46.0883 222.949 47.0902 223.451 46.9057C223.53 46.8793 223.372 45.9828 224.375 45.6137C227.966 44.269 231.61 43.0298 235.359 41.6851C236.23 41.3687 236.785 42.2915 237.26 40.9732C237.682 41.0786 236.943 41.7642 237.26 41.8169C237.577 41.8696 241.511 38.7848 242.831 39.2593L242.277 38.7057C243.808 38.7057 246.844 39.4966 246.554 37.2819C247.188 38.7584 248.851 36.5963 249.273 36.4645C251.597 35.7262 255.452 34.9616 258.118 34.2233C259.175 33.9333 259.095 34.777 259.386 34.6979C259.491 34.6716 260.996 33.0368 261.102 33.0105C261.63 32.8523 261.023 33.8015 261.947 33.5642C261.973 33.5642 261.868 33.0896 262.132 33.0105C262.264 32.9841 263.927 32.905 264.64 32.7468C264.983 32.6677 264.772 31.9031 264.825 31.8767C265.274 31.7185 264.983 32.5095 265.274 32.4568C269.023 31.5867 272.429 30.7166 276.31 30.1629C276.627 30.1102 276.495 29.6092 276.522 29.6092C277.102 29.5301 276.442 30.2684 277.234 30.1629C277.578 30.1102 277.102 29.6619 277.657 29.5828C277.71 29.5828 277.525 30.1629 277.815 30.1629C278.079 30.1629 277.815 29.6092 278.159 29.5828C281.776 29.2401 285.868 29.0291 289.512 29.0028C301.156 28.95 309.816 30.5847 317.314 39.9449C320.245 43.5835 321.724 46.7738 322.701 52.2317C322.912 53.4446 323.097 59.4298 323.308 59.7198C323.44 59.9044 327.559 58.9024 327.929 59.1397C329.671 57.6368 331.731 56.2394 334.133 56.3185C332.84 54.1037 334.846 55.7912 334.978 55.7384C335.057 55.7384 335.533 54.842 336.008 54.6838C336.166 54.6311 337.407 54.9211 337.539 54.8683C337.592 54.8683 337.487 54.1301 337.592 54.0774C340.391 52.9963 343.348 52.2581 346.12 51.0188C347.731 48.8568 347.308 50.6497 347.414 50.597C347.942 50.3069 347.52 49.7796 347.573 49.7532C348.84 49.2786 351.401 48.8568 352.827 48.3294C353.038 48.2503 352.748 47.8021 352.827 47.7757C353.117 47.6703 355.89 47.3802 356.391 47.1957C356.55 47.1429 355.995 46.4311 356.259 46.352C356.312 46.352 356.655 46.9847 357.289 46.8002C357.843 46.642 359.639 45.3764 360.272 45.1918C360.352 45.1918 360.457 45.7719 360.537 45.7455C363.124 45.0336 365.606 43.979 368.405 43.7417L368.114 43.188C370.279 42.8979 373.738 42.4233 375.93 41.7905C376.299 41.6851 376.062 40.9468 376.114 40.9204C376.563 40.7359 376.378 41.5005 376.405 41.4741C376.986 41.3159 376.484 40.9732 376.827 40.8941C377.171 40.815 376.563 41.5796 377.54 41.4478C377.567 41.4478 377.461 40.9732 377.672 40.9468C383.164 39.7867 388.286 38.7847 393.884 38.0729C394.174 38.0465 394.042 37.5192 394.069 37.4928C394.57 37.4137 394.227 38.0729 394.465 38.0201C395.574 37.8883 396.234 38.0729 396.788 38.0201C396.947 38.0201 396.788 37.5192 397.343 37.4664C398.399 37.3346 399.455 38.6266 399.059 36.9391C399.138 37.8092 400.907 37.5983 401.884 37.5192C402.174 37.5192 402.042 36.9391 402.069 36.9391C402.623 36.8864 402.148 37.5455 402.491 37.5192C402.834 37.4928 402.359 36.9655 402.914 36.9391C402.966 36.9391 402.782 37.5192 403.072 37.5192C403.336 37.5192 403.098 36.9391 403.389 36.9127C404.762 36.8336 407.349 37.2028 408.854 37.15C409.33 37.15 409.594 36.6491 409.646 36.6491C409.884 36.6491 409.752 37.2291 409.937 37.2291C412.92 37.15 415.772 36.86 418.782 36.8864C419.02 36.8864 418.782 36.359 419.046 36.359C419.178 36.359 419.838 37.15 421.317 37.15C422.663 37.15 423.983 37.2028 425.356 37.2291C425.964 37.2291 425.462 36.6227 426.175 36.6227C426.413 36.6227 426.254 37.2028 426.518 37.2028C428.815 37.2028 432.01 37.361 434.175 37.15C434.386 37.15 434.175 36.7018 434.439 36.6227C434.756 36.5436 434.307 37.2028 434.862 37.2028C434.941 37.2028 434.703 36.4381 435.02 36.359C435.152 36.3327 435.178 37.1764 436.182 37.2028C436.868 37.2291 437.211 36.5963 437.845 36.6227C437.977 36.6227 437.977 37.2028 438.136 37.2291C438.637 37.2291 438.901 36.6491 438.98 36.6491C439.112 36.6491 439.905 37.2291 441.568 37.2291C443.231 37.2291 443.443 36.359 443.548 36.359C443.839 36.359 443.548 36.8864 443.812 36.8864C445.608 36.8864 447.403 36.9655 449.198 36.9127C449.463 36.9127 449.278 37.5192 449.515 37.4928C449.753 37.4664 449.568 36.9391 449.859 36.9127C450.703 36.86 454.057 36.2272 454.241 36.359C454.373 36.4381 453.872 37.1237 453.951 37.2028C454.136 37.361 455.35 36.86 455.377 36.9127C455.72 37.5719 454.664 39.022 456.222 38.4684L455.377 39.1802C459.628 38.7056 457.832 42.1597 458.545 43.3989C459.02 44.1899 460.948 43.0561 459.575 45.06C459.469 45.2182 458.809 45.0864 458.783 45.1391C458.624 45.6664 459.892 45.6664 459.918 45.7192C459.971 45.7983 460.235 47.4593 460.209 47.5648C460.103 47.8812 459.364 47.6175 459.337 47.723C459.152 48.4349 459.258 50.1487 458.704 50.7815C458.308 51.2298 456.38 51.0716 456.195 51.1243C456.143 51.1243 456.327 51.8889 456.011 51.968C451.733 53.3391 447.324 52.5217 442.941 52.7854C442.571 52.7854 442.967 53.6028 442.65 53.6555L405.712 53.9455L405.871 54.4992C401.62 54.341 397.237 55.3957 393.039 56.213C392.828 56.2658 393.118 56.7667 393.039 56.7667C392.273 56.9249 390.531 56.6085 389.633 56.7931C382.478 58.2169 374.002 60.0362 367.401 62.5146C366.952 62.6728 366.952 63.2793 366.926 63.3056C366.16 63.622 366.53 62.4619 365.949 62.7519C365.553 62.9365 365.844 63.4902 365.659 63.5693C365.606 63.5957 365.236 63.2529 364.999 63.3584C364.312 63.7275 362.517 65.5204 362.358 65.5732C362.121 65.6786 361.751 64.914 361.513 65.0195C361.513 65.0195 361.54 65.4941 361.461 65.5468C361.223 65.6523 359.692 65.7841 359.19 65.9687C346.833 70.741 329.909 84.1352 317.288 75.5397C317.103 75.4079 315.387 71.9802 315.202 71.6638C315.017 71.3738 313.908 70.8992 313.592 70.2928C313.486 70.0819 314.516 70.3455 314.146 69.6073C313.301 67.8407 311.77 67.6825 312.72 65.3359L312.166 65.8896C312.087 63.1211 311.506 60.5899 311.004 57.5841C310.978 57.4259 310.238 56.9777 310.186 56.6349C310.133 56.3712 310.951 57.2413 310.766 56.0812C310.106 52.2053 310.291 49.1732 307.915 45.4291V45.1391C307.228 44.3217 304.509 43.7153 303.585 43.6362C283.624 41.7642 260.495 51.9417 242.277 58.3751C241.696 58.586 240.745 58.3487 239.61 58.7706C239.319 58.8761 239.478 59.6407 239.425 59.6407C239.293 59.6934 237.286 59.588 236.468 59.9044C236.151 60.0362 236.336 60.669 236.23 60.7217C235.385 61.0645 233.563 61.0645 232.349 61.5655C231.9 61.75 229.946 63.5166 229.577 63.622C229.497 63.622 229.26 63.0156 227.992 63.332C227.808 63.3847 227.676 63.332 227.702 63.622L227.94 63.7802ZM29.8363 21.6992V21.9893L29.9683 21.8574L29.8363 21.7256V21.6992ZM27.2752 23.413V23.7031L27.4072 23.5712L27.2752 23.4394V23.413ZM19.5655 28.2381V28.5282L19.6975 28.3963L19.5655 28.2645V28.2381ZM62.6291 29.952V30.242L62.7611 30.1102L62.6291 29.9783V29.952ZM54.2065 31.3757C54.4969 31.0857 53.652 30.242 53.3616 30.532C53.0712 30.822 53.9161 31.6658 54.2065 31.3757ZM52.3583 31.0857V31.3757L52.4903 31.2439L52.3583 31.1121V31.0857ZM12.8591 33.6433V33.0896H12.5686V33.6433H12.8591ZM457.436 40.7622V41.0523L457.568 40.9204L457.436 40.7886V40.7622ZM45.0974 54.6838H44.5429V54.9738H45.0974V54.6838ZM187.305 59.7989V60.0889L187.437 59.9571L187.305 59.8253V59.7989Z" fill="white"/>
<path d="M227.939 63.7803C227.939 63.7803 228.123 63.7803 228.229 63.7803C228.229 63.7803 228.071 63.9385 227.939 63.7803Z" fill="white"/>
<path d="M235.78 41.0264L235.938 41.1846L235.78 41.3164V41.0264Z" fill="white"/>
<path d="M307.385 45.2979L307.544 45.456L307.385 45.5879V45.2979Z" fill="white"/>
<path d="M210.116 51.2832L210.248 51.415L210.116 51.5469V51.2832Z" fill="white"/>
<path d="M191.871 56.9521L192.003 57.1103L191.871 57.2422V56.9521Z" fill="white"/>
<path d="M191.871 57.8223L192.003 57.9541L191.871 58.0859V57.8223Z" fill="white"/>
<path d="M323.942 58.9551L324.074 59.0869L323.942 59.2187V58.9551Z" fill="white"/>
<path d="M178.17 62.3564L178.302 62.4883L178.17 62.6465V62.3564Z" fill="white"/>
<path d="M315.095 72.2969L315.227 72.4551L315.095 72.5869V72.2969Z" fill="white"/>
<path d="M202.987 74.0107L203.119 74.1426L202.987 74.3008V74.0107Z" fill="white"/>
<path d="M27.8286 22.5703L27.987 22.7021L27.8286 22.834V22.5703Z" fill="white"/>
<path d="M273.721 77.7031L273.88 77.8613L273.721 77.9932V77.7031Z" fill="white"/>
<path d="M295.398 79.7061L295.557 79.8379L295.398 79.9961V79.7061Z" fill="white"/>
</g>
<defs>
<clipPath id="clip0_2969_567">
<rect width="461" height="82" fill="white"/>
</clipPath>
</defs>
</svg>
