<svg width="144" height="20" viewBox="0 0 144 20" fill="none" xmlns="http://www.w3.org/2000/svg">
<g clip-path="url(#clip0_2970_782)">
<path d="M126.71 17.8703C127.14 18.3103 126.86 18.4203 126.91 18.4703C126.93 18.4903 127.43 18.1803 127.41 18.6703C126.41 18.8003 126.8 18.3303 126.71 17.8703C126.71 17.8503 126.4 17.9903 126.51 17.5703C126.7 17.5703 126.69 17.8503 126.71 17.8703Z" fill="black"/>
<path d="M92.65 1.4297H92.45C92.56 1.2597 92.76 0.829699 92.65 1.4297Z" fill="black"/>
<path d="M9.13994 6.23953C9.13994 6.23953 8.93994 6.22953 8.93994 6.23953C9.07994 6.07953 9.37994 5.45953 9.13994 6.23953Z" fill="black"/>
<path d="M135.05 1.43047C135.05 1.43047 134.9 1.41047 134.85 1.43047C134.83 1.43047 134.54 1.29047 134.7 1.23047C134.78 1.24047 135.09 1.35047 135.05 1.43047Z" fill="black"/>
<path d="M6.52992 8.25038C6.52992 8.25038 6.43992 8.35038 6.42992 8.35038C6.06992 8.32038 6.73992 7.81038 6.52992 8.25038Z" fill="black"/>
<path d="M1.29995 14.0601C1.29995 14.0601 1.22995 14.0501 1.19995 14.0601H1.29995Z" fill="black"/>
<path d="M58.8801 12.25C58.8801 12.25 58.9101 12.46 58.8301 12.45C58.7301 12.45 58.8001 12.3 58.7801 12.25C58.7801 12.26 58.8701 12.24 58.8801 12.25Z" fill="black"/>
<path d="M33.96 1.53016H33.76C33.76 1.53016 33.86 1.26016 33.96 1.53016Z" fill="black"/>
<path d="M92.6499 1.42963C93.4299 1.17963 93.2199 1.03963 93.4199 0.929631C93.7599 0.739631 94.5499 0.879631 94.3599 0.329631L94.4599 0.529631L94.5599 0.229631C94.8799 0.859631 94.6099 0.319631 94.8699 0.269631C96.6599 -0.0803692 96.9899 -0.0503692 98.5999 0.209631C98.9799 0.269631 99.6099 0.399631 99.7799 0.229631C99.6299 0.629631 100.86 0.679631 101.09 0.769631C101.2 0.809631 101.17 1.11963 101.19 1.12963C101.24 1.14963 102.13 0.829631 101.99 1.42963L102.19 1.02963C102.15 1.76963 102.96 1.70963 102.8 2.32963C103.52 1.84963 104.28 3.89963 104.51 4.43963L104.61 4.23963C104.52 4.72963 105.24 5.38963 105.3 5.60963C105.39 5.89963 105.1 5.83963 105.11 5.89963C105.2 6.23963 105.43 6.55963 105.42 6.94963C105.64 6.42963 106.01 6.49963 106.12 7.04963C105.79 5.90963 107.26 6.68963 107.03 5.95963C107.69 5.78963 108.34 4.89963 108.48 4.24963C108.82 3.96963 108.46 4.56963 108.53 4.64963C108.6 4.72963 109.1 4.07963 108.83 3.84963C108.88 4.48963 110.14 3.17963 110.14 2.74963L110.29 3.04963C110.42 2.30963 110.5 2.90963 110.87 2.64963C111.14 2.45963 111.51 1.87963 111.55 1.84963C111.79 1.65963 111.87 2.11963 111.95 2.04963C111.98 2.01963 111.85 1.86963 112.2 1.63963C112.44 1.47963 112.64 1.66963 112.66 1.64963C112.7 1.61963 112.74 1.15963 112.76 1.14963C112.85 1.08963 114.55 1.32963 114.17 0.649631C114.47 1.08963 115.24 0.539631 115.62 0.509631C115.93 0.489631 116.36 0.559631 116.71 0.549631C116.81 0.549631 116.68 0.339631 116.93 0.349631C117.01 0.349631 116.93 0.539631 117.13 0.559631C117.4 0.589631 118.14 0.539631 118.19 0.559631C118.23 0.569631 118.03 1.14963 118.54 0.659631C120.98 1.82963 122.66 2.45963 123.53 5.25963C123.48 5.20963 123.48 5.12963 123.53 5.08963C123.58 5.04963 123.66 5.03963 123.71 5.08963C123.76 5.13963 123.76 5.21963 123.71 5.25963C123.66 5.29963 123.58 5.30963 123.53 5.25963C123.62 5.60963 123.75 7.38963 123.82 7.47963C123.84 7.50963 124.15 7.42963 124.2 7.49963C124.29 7.61963 124.29 8.05963 124.63 8.03963C124.79 8.03963 125.17 7.60963 125.34 7.52963C125.52 7.43963 125.67 7.58963 125.69 7.57963C125.73 7.55963 125.68 7.21963 125.74 7.17963C125.76 7.16963 125.98 7.33963 126.25 7.12963C126.36 7.04963 126.19 6.88963 126.4 6.67963C126.43 6.64963 126.71 6.80963 126.75 6.76963C126.77 6.74963 126.7 6.42963 126.88 6.19963C126.96 6.09963 127.82 6.35963 127.25 5.96963C127.44 6.18963 128.71 5.50963 128.25 5.16963C128.61 5.31963 128.51 5.24963 128.7 4.96963L128.8 5.16963C129.2 5.00963 129.05 4.69963 129.38 4.43963C129.84 4.06963 130.32 4.18963 130.36 4.16963C130.4 4.14963 130.23 3.88963 130.26 3.86963C130.72 3.63963 131.69 3.74963 131.11 3.16963C131.77 3.77963 132.14 2.77963 132.26 2.70963C132.34 2.65963 132.52 2.79963 132.67 2.72963C132.77 2.67963 132.75 2.37963 132.77 2.36963C132.83 2.33963 133.73 2.34963 133.97 2.06963L133.67 1.86963C134.02 1.93963 134.44 1.64963 134.88 1.46963C134.96 1.48963 134.83 1.59963 135.08 1.46963C135.19 1.40963 135.17 1.17963 135.18 1.16963C135.41 0.999631 135.37 1.56963 135.58 1.36963C135.61 1.33963 135.5 1.09963 135.7 1.03963C136.51 0.769631 137.45 0.639631 138.29 0.469631L137.99 0.269631L139.15 0.469631L139.1 0.269631C139.58 -0.0103692 140.53 0.769631 140.61 0.769631C140.84 0.769631 140.56 0.409631 140.86 0.469631C141.11 0.519631 143.24 1.84963 143.42 2.11963C143.6 2.38963 143.75 2.81963 143.72 3.16963L143.92 2.86963C143.9 3.75963 143.99 5.15963 142.92 5.33963C142.53 5.94963 141.37 6.31963 140.73 6.69963C140.68 6.72963 140.73 6.96963 140.71 6.97963C140.69 6.98963 140.52 6.87963 140.17 7.08963C139.98 7.20963 140.02 7.46963 140.01 7.47963C139.79 7.66963 139.84 7.19963 139.71 7.27963C139.52 7.39963 139.04 7.95963 138.89 8.05963C138.86 8.07963 138.23 8.15963 138.2 8.17963C138.17 8.19963 138.35 8.42963 138.29 8.46963C138 8.68963 137.21 9.33963 137.19 8.77963C137.57 9.53963 136.22 9.62963 136.11 9.70963C135.85 9.88963 135.54 10.4096 135.32 10.5696C135.15 10.6896 134.86 10.5896 134.71 10.6996C134 11.2296 132.68 12.3496 131.89 13.1096C131.82 13.1796 131.89 13.4496 131.87 13.4796C131.83 13.5196 131.5 13.4396 131.47 13.4796C131.44 13.5196 131.51 13.8296 131.47 13.8796C131.45 13.8996 130.99 13.9296 130.81 14.1196C130.69 14.2496 130.43 14.9496 130.32 14.9896C130.22 15.0196 130.38 14.5596 130.07 14.6896C130.2 15.4696 129.51 15.4496 129.47 15.4996C129.08 15.9796 129.73 15.7696 128.68 16.3196C128.65 16.3396 128.73 16.5496 128.55 16.6296C128.26 16.7696 127.61 16.7196 127.26 16.8996L127.36 17.0996C126.96 16.9896 126.19 16.8796 126.1 17.0996C125.28 15.8896 123.87 15.5996 122.78 14.8896C122.34 14.5996 121.86 13.8096 121.52 13.9896L119.31 10.3796C119.19 10.0496 118.98 8.34963 118.91 8.26963C118.76 8.11963 118.22 8.65963 118.51 7.66963L118.21 7.86963C118.26 7.28963 118.23 7.50963 117.86 7.26963C117.76 7.68963 117.72 7.26963 117.51 7.32963C117.23 7.41963 116.33 7.98963 116.07 8.16963C116.03 8.19963 116.12 8.35963 116.11 8.36963C116.05 8.40963 115.76 8.22963 115.71 8.26963C115.69 8.27963 115.71 8.54963 115.57 8.67963C114.69 9.44963 113.47 10.5796 112.75 11.4796C112.45 11.8496 112.03 12.8496 111.85 13.0896C111.33 13.7696 110.39 14.8496 109.85 15.5896C109.7 15.7996 109.54 16.0296 109.49 16.2896L109.29 15.9896C109.29 17.0296 108.82 16.4596 108.79 16.4896C108.76 16.5196 108.57 17.0696 108.54 17.0896C108.53 17.0896 108.32 16.9296 108.2 16.9996C108.01 17.1196 107.5 17.7296 107.03 17.7896C106.96 17.7996 107 17.5796 106.92 17.5796C106.15 17.5996 106.11 17.5196 105.43 17.3796C105.32 17.3596 105.46 17.6296 105.28 17.5796C105.25 17.5796 105.35 17.3196 105.22 17.2696C105.12 17.2296 104.87 17.3296 104.75 17.2696C104.17 16.9996 103.54 16.4196 103.02 16.0696C102.93 16.0096 103.04 16.3296 102.87 16.2696C102.99 15.7496 102.35 15.5296 102.02 15.0596C101.03 13.6496 101.04 12.8296 100.51 11.4596C100.46 11.3396 100.2 11.2896 100.17 11.2396C99.7999 10.2396 99.5099 9.41963 99.4399 8.45963L99.2399 8.55963V7.55963L99.0399 7.85963C99.0199 7.76963 99.0599 7.47963 99.0399 7.45963C98.6099 7.13963 96.6899 7.73963 96.2099 8.10963C96.0999 8.18963 96.2499 8.42963 96.2199 8.45963C96.1899 8.48963 95.9499 8.45963 95.8099 8.60963C95.6899 8.72963 95.7399 9.04963 95.7199 9.06963C95.6399 9.12963 95.2499 8.99963 95.1399 9.09963C94.8799 9.31963 94.7499 9.84963 94.7199 9.87963C94.6899 9.90963 94.4199 9.82963 94.3399 9.89963C94.2199 9.99963 94.1599 10.3196 94.1099 10.3696C94.0899 10.3896 93.8599 10.2396 93.8199 10.2696C93.7999 10.2796 93.8499 10.5096 93.7199 10.6296C93.2299 11.0896 92.9399 11.3496 92.4899 11.8496C92.3799 11.9696 91.9799 12.0696 91.9099 12.2296C91.8699 12.3096 92.2199 12.2296 92.1099 12.4296C92.0799 12.4796 91.3299 13.0096 91.2399 13.1096C91.1499 13.2096 90.7499 14.0696 90.6999 14.0796C90.6099 14.0996 90.4299 13.7796 90.2999 13.8796C90.2599 13.9096 90.2399 14.4896 90.1799 14.6096C89.9199 15.0396 88.8799 16.1296 88.4799 16.5196C88.3399 16.6596 87.8199 16.8196 87.7199 16.9096C87.6799 16.9496 87.4999 17.7696 87.1199 17.8896C86.4599 18.0896 82.5499 15.7696 81.4799 15.8696C81.3799 15.7796 81.2899 14.7496 81.2499 14.6896C81.1199 14.4796 80.7699 15.0096 80.7099 14.1796L80.5599 14.4796C80.6899 13.4996 80.0599 14.2196 80.1599 13.2796L79.9599 13.6796C79.8899 12.8996 79.6399 12.0396 79.0499 11.4796C79.0799 11.6296 79.1999 11.7896 79.1499 11.9796L78.8499 11.3296C78.9199 11.1896 78.9699 11.3996 79.0499 11.4796C78.9699 11.0696 78.7899 10.7096 78.8499 10.2796L78.5499 10.6796C78.3899 10.0596 77.9599 9.73963 78.1499 9.27963C77.4299 10.0696 77.3599 9.07963 77.2999 9.07963C77.1699 9.06963 77.0099 9.74963 76.7799 9.86963C76.6299 9.94963 76.4099 9.75963 76.3499 9.77963C76.2299 9.80963 76.6699 10.3296 75.9499 9.77963C76.2299 10.3196 75.7799 9.93963 75.7499 9.97963C75.7099 10.0296 75.6299 10.5396 75.5199 10.6596C75.4699 10.7196 75.2199 10.6596 75.0999 10.7896C74.9199 10.9796 74.8699 11.3696 74.8499 11.3896C74.8399 11.3996 74.6199 11.2596 74.5699 11.3096C74.3399 11.5396 73.9099 12.3296 73.7399 12.4896C73.5499 12.6696 73.5499 12.1396 73.3399 12.2896C73.2899 12.3196 72.8699 13.2096 72.8099 13.2696C72.7499 13.3296 72.5299 13.2296 72.4199 13.3596C72.1299 13.6696 71.7999 14.3396 71.5599 14.6096C71.4899 14.6896 71.1799 14.6596 71.1399 14.7096C71.0699 14.7896 71.1699 15.1496 71.1299 15.1996C71.0899 15.2496 70.7799 15.0596 70.7299 15.0996C70.6999 15.1196 70.6499 15.5096 70.3799 15.8096C70.2499 15.9496 70.0299 15.7796 70.0299 15.7996C69.9799 15.8796 70.0799 16.3596 70.0299 16.3996C69.9999 16.4296 69.6199 16.3396 69.5199 16.4396C69.3899 16.5596 69.4399 16.8396 69.3799 16.9096C69.2599 17.0196 69.0999 16.8796 69.0299 16.9496C68.9099 17.0596 68.9099 17.3196 68.7799 17.4196C68.6499 17.5196 68.4699 17.3696 68.4199 17.4096C68.3999 17.4296 68.4599 17.6496 68.3999 17.6896C68.1299 17.8896 67.6499 17.8896 67.6099 17.9096C67.5799 17.9296 67.4899 18.3996 67.2099 18.5696C67.1199 18.6196 66.1099 18.7296 66.0099 18.6996C65.9599 18.6896 66.0599 18.4396 65.9499 18.4096C65.6999 18.3296 65.8399 18.6896 65.7999 18.7096C65.6599 18.7796 65.4999 18.4896 65.2499 18.4996C65.2299 18.4996 65.1599 18.8396 64.8599 18.7096C64.7299 18.6496 64.6899 18.3696 64.5399 18.3096C64.3299 18.2296 64.4799 18.5496 64.2399 18.5096C64.1099 18.4896 64.0799 17.8096 63.7899 18.5096L63.7399 18.2096L63.5899 18.4096C63.6999 17.5896 63.3799 18.0696 62.9899 17.8596C60.2499 16.3196 60.1499 14.9896 58.9699 12.2996C58.9099 12.1596 58.8999 11.9596 58.8699 11.7996C58.7099 11.7696 58.7599 12.1096 58.7699 12.1996C58.5399 11.4596 58.4899 10.6396 58.2699 9.89963L58.0699 10.0996C58.0699 9.66963 57.9999 9.06963 57.8699 8.49963L57.6699 9.09963C57.7399 8.42963 57.7199 8.13963 57.3299 7.58963C57.2699 7.49963 56.9999 7.51963 56.9699 7.49963C56.9099 7.45963 57.3999 7.23963 57.1699 7.09963C57.0099 6.99963 55.5199 7.61963 55.3599 7.85963C55.3399 7.89963 55.4999 8.14963 55.4599 8.19963C55.4299 8.22963 54.7399 8.17963 54.7099 8.19963C54.6099 8.25963 54.8199 8.45963 54.7599 8.48963C54.3799 8.71963 54.2199 8.84963 53.8799 9.09963C53.7999 9.15963 53.4699 9.03963 53.3699 9.11963C53.3299 9.14963 53.0099 9.69963 52.8299 9.87963C52.7499 9.95963 52.1399 9.66963 52.2499 10.6996C51.6999 10.0296 51.6199 10.9796 51.5299 11.0796C51.2199 11.4396 50.3299 12.0496 50.0599 12.3696C49.4499 13.0696 48.8799 14.1096 48.2899 14.8096C48.0899 15.0496 47.4699 15.4696 47.4299 15.5096C47.3999 15.5396 47.5699 15.7396 47.5199 15.7896C46.2399 17.1696 45.2699 17.7096 43.3799 17.9096C43.2899 17.9096 43.3399 18.1096 43.2599 18.1096C43.0299 18.1096 39.5599 16.4496 39.4099 16.2896C39.3099 16.1896 38.0399 14.1696 37.9599 13.9996C37.3899 12.7196 37.1999 11.1496 36.7799 9.78963L36.5799 9.88963C36.5199 9.49963 36.2899 9.54963 36.4799 9.08963L36.2799 9.18963V8.08963L36.0799 8.28963L35.9799 7.78963C35.8099 8.32963 35.6799 7.91963 35.5799 7.98963C35.5699 7.98963 35.6099 8.22963 35.5499 8.25963C35.1099 8.52963 34.4699 8.70963 33.9899 9.05963C33.6799 9.28963 32.5599 10.1696 32.2799 10.4196C32.2299 10.4696 31.6499 11.4096 31.5499 11.4996C31.5399 11.4996 31.3299 11.3796 31.2599 11.4496C30.8099 11.8596 30.3599 12.2896 29.8999 12.7096C29.8199 12.7896 29.8799 13.0796 29.8499 13.1096C29.4599 13.4596 28.6299 13.9196 28.2699 14.2396C28.1499 14.3496 28.1899 14.6496 28.1299 14.6996C28.0699 14.7496 27.8399 14.6596 27.7599 14.7296C27.6099 14.8696 27.4199 15.4796 27.3899 15.5096C27.3799 15.5196 27.1799 15.3396 27.0399 15.4596C26.8299 15.6296 26.7299 15.8896 26.3899 16.1296C26.2399 16.2396 26.0599 16.1096 26.0499 16.1296C26.0099 16.1496 26.0099 16.4696 25.8299 16.5596C24.5199 17.2496 22.7299 17.1896 21.4399 16.3896C21.3399 16.3296 21.3299 16.0296 21.3099 16.0096C21.2599 15.9696 21.0399 16.1396 21.0099 16.1096C20.9399 16.0596 20.0599 14.9096 19.9799 14.7796C19.6399 14.2796 19.3599 13.6896 19.1999 13.1096L18.9999 13.4096L19.0999 12.7096L18.8999 12.9096C19.1399 12.3796 18.4299 11.9796 18.3999 11.3096L18.1999 11.5096V10.6096L17.8999 10.9096C18.2799 9.65963 17.8799 10.5096 17.7999 10.4096C17.7599 10.3496 17.8399 9.94963 17.7999 9.90963C17.7399 9.84963 16.2499 9.85963 16.1899 9.90963C16.0899 9.99963 16.3799 10.6296 15.7899 10.2096C15.8899 10.8896 15.5999 10.4296 15.2999 10.6196C14.2599 11.2896 13.0399 12.4996 12.1499 13.2896C11.8099 13.5896 11.5099 14.0396 11.1699 13.8196C11.7299 14.1996 10.6099 14.3796 10.5699 14.4296C10.4999 14.5196 10.6199 14.9296 10.5699 15.0296C10.5499 15.0696 10.2099 14.9396 9.79989 15.3596C9.65989 15.5096 9.39989 16.1896 9.35989 16.2296C9.34989 16.2396 9.11989 16.0896 9.06989 16.1396C8.96989 16.2396 8.78989 16.6596 8.61989 16.7996C8.31989 17.0596 7.86989 16.8996 7.84989 16.9296C7.81989 16.9796 7.90989 17.3196 7.79989 17.4296C7.66989 17.5596 7.46989 17.5596 7.37989 17.6596C6.73989 18.2896 6.39989 18.5196 5.72989 19.0996C5.64989 19.1696 5.66989 19.4896 5.63989 19.5296C5.57989 19.6096 5.17989 19.2296 5.08989 19.2396C4.99989 19.2496 4.97989 19.5296 4.86989 19.5396C4.54989 19.5396 3.91989 19.5396 3.60989 19.5096C3.44989 19.4896 3.31989 19.1996 3.23989 19.2296C3.20989 19.2396 3.29989 19.5096 3.18989 19.5296C3.12989 19.5296 3.06989 19.2896 3.01989 19.2696C2.78989 19.1796 2.17989 19.0796 2.05989 19.0096C2.00989 18.9796 2.05989 18.7496 2.03989 18.7396C1.79989 18.5896 1.37989 18.9996 1.53989 18.2396C1.35989 18.9796 1.09989 17.8196 0.839893 18.3396C0.799893 17.8296 0.309893 17.0196 0.239893 16.5796C0.179893 16.2096 0.729893 15.8396 0.139893 15.4796C0.739893 16.0996 0.759893 14.8696 1.13989 14.4296C1.13989 14.5596 1.22989 14.5596 1.23989 14.4296C1.23989 14.4296 1.42989 14.4096 1.23989 14.3296L1.03989 14.1796C1.12989 13.9696 1.32989 14.1396 1.33989 14.1296C1.37989 14.3196 1.38989 14.1896 1.43989 14.1296C1.72989 13.8296 1.93989 13.6296 1.63989 13.3296C2.17989 13.5796 1.79989 13.2296 1.88989 13.1196C2.12989 12.8296 2.71989 12.4896 2.83989 11.9296L2.93989 12.1296L3.03989 11.6296L3.33989 11.9296L3.53989 11.0796C4.00989 10.9396 3.41989 11.2996 3.43989 11.4796C3.49989 12.0296 3.91989 10.7696 3.94989 10.7296C3.99989 10.6496 4.41989 11.1696 4.14989 10.3296L4.44989 10.7296C4.15989 10.4896 5.40989 9.80963 5.34989 9.57963C5.32989 9.47963 5.08989 9.67963 5.04989 9.62963C4.89989 9.40963 5.93989 8.68963 5.49989 9.42963C5.98989 9.30963 5.54989 9.02963 5.64989 8.82963C5.64989 8.80963 5.89989 8.91963 5.98989 8.83963C6.09989 8.73963 6.02989 8.53963 6.04989 8.52963C6.06989 8.50963 6.18989 8.68963 6.54989 8.42963C6.59989 8.39963 6.61989 8.34963 6.64989 8.32963C6.77989 8.22963 6.66989 7.89963 7.14989 8.02963L6.84989 7.72963C7.99989 6.72963 6.98989 7.75963 7.64989 7.62963C7.70989 7.61963 8.07989 6.65963 8.40989 6.72963L8.50989 6.92963C8.65989 6.68963 8.87989 6.52963 9.05989 6.32963C8.89989 6.70963 9.14989 6.42963 9.25989 6.32963C9.29989 6.28963 9.56989 6.42963 9.45989 5.92963C9.82989 6.39963 10.0599 5.90963 9.95989 5.42963C10.1599 5.68963 10.1499 5.97963 10.4599 5.52963L10.2599 5.42963C10.4599 5.47963 10.5599 5.12963 10.6099 5.12963C10.6999 5.12963 10.6999 5.43963 10.8599 5.42963L11.0599 4.92963V5.42963C11.2699 4.99963 11.4299 4.87963 11.4599 4.32963C11.9599 4.99963 11.6799 4.53963 12.2099 4.32963C12.5499 4.70963 12.3099 4.25963 12.4599 4.17963C12.7199 4.03963 13.1999 3.72963 13.3899 3.63963C13.5499 3.55963 13.7099 3.74963 13.7699 3.71963C13.7799 3.71963 13.7499 3.43963 13.7799 3.42963C14.1099 3.30963 14.7199 3.23963 15.0799 3.30963L14.7799 3.10963H15.3799L15.1799 2.90963H15.9799L15.8799 2.64963C16.5799 2.79963 16.3499 2.08963 17.2899 2.39963L16.9899 2.09963C17.5899 2.28963 17.7599 1.83963 17.8899 2.29963C17.8999 2.09963 17.7899 2.03963 18.0399 1.99963C18.4799 1.92963 19.7499 1.99963 20.1999 2.09963C20.2199 2.09963 20.1899 2.39963 20.1999 2.39963C20.2899 2.41963 20.3999 2.14963 20.6199 2.20963C20.8099 2.25963 21.0299 2.54963 21.1499 2.58963C21.3599 2.65963 21.2399 2.24963 21.4999 2.38963C21.5199 2.39963 21.4799 2.67963 21.4999 2.68963C21.5799 2.71963 21.7199 2.44963 21.7999 2.48963C21.8199 2.48963 21.8499 2.83963 21.9199 2.87963C22.0499 2.93963 22.2999 2.84963 22.4999 2.94963C22.7799 3.08963 22.9799 3.47963 23.0099 3.48963C23.3799 3.68963 22.7999 3.07963 23.6299 3.66963C23.6699 3.69963 23.8699 3.54963 23.9199 3.58963C23.9399 3.60963 23.9199 3.92963 24.0599 4.05963C24.3099 4.28963 24.9899 4.64963 25.0199 4.69963C25.2099 4.90963 24.7099 4.84963 24.8199 5.09963C24.8199 5.11963 24.9999 5.14963 25.1599 5.40963C25.2599 5.55963 25.1799 5.83963 25.2199 5.89963C25.2399 5.93963 25.5299 5.83963 25.6299 5.96963C25.8899 6.31963 25.7199 6.84963 26.2199 6.60963C26.2299 6.60963 26.1799 6.34963 26.2299 6.31963C26.7699 6.05963 27.4899 6.24963 27.4299 5.49963L27.5799 5.69963C27.9799 5.14963 28.3599 5.14963 28.5899 4.59963L28.6899 4.79963C28.8399 4.29963 29.4599 4.20963 29.5999 4.10963C30.0299 3.79963 29.5999 3.41963 30.1499 3.79963V3.29963C30.1099 3.93963 31.6899 2.81963 30.8499 2.79963C31.5999 3.08963 31.5199 2.52963 31.5499 2.49963C31.5999 2.45963 31.7999 2.62963 31.8499 2.59963C31.8799 2.57963 31.8199 2.21963 31.8499 2.19963C31.8999 2.15963 32.4699 2.30963 32.4999 2.29963C32.5999 2.26963 32.3999 2.01963 32.4499 1.99963C32.5099 1.97963 32.9399 2.08963 33.1999 1.99963C33.2799 1.96963 33.1499 1.81963 33.1999 1.79963C33.2899 1.75963 33.6699 1.66963 33.8599 1.59963C33.9599 1.86963 34.0299 1.60963 34.0599 1.59963C34.4599 1.41963 34.3899 1.29963 34.4199 1.28963C34.8599 1.17963 35.4799 1.40963 35.9199 1.39963C36.0399 1.39963 35.9099 1.11963 36.0199 1.08963C36.1999 1.04963 36.4899 1.47963 36.5199 1.48963C36.5399 1.48963 36.6599 1.30963 36.7399 1.31963C37.3799 1.41963 37.9899 1.49963 38.6199 1.67963C38.7399 1.70963 38.6699 1.97963 38.6899 1.98963C38.7999 2.02963 39.4799 1.86963 39.6699 1.95963C39.9199 2.07963 39.8699 2.33963 39.9099 2.37963C40.0099 2.44963 40.2099 2.37963 40.2399 2.39963C40.3599 2.50963 40.1499 2.63963 40.1899 2.69963C40.3499 2.93963 40.4099 2.39963 40.4899 2.49963C40.5999 2.62963 40.4699 2.97963 40.4899 2.99963C40.5499 3.04963 40.7999 2.85963 40.8699 2.91963C41.0399 3.06963 41.1799 3.45963 41.2099 3.48963C41.2799 3.55963 41.5599 3.46963 41.5999 3.50963C41.6399 3.54963 41.5499 3.79963 41.6199 3.87963C42.6399 5.08963 42.6799 5.20963 42.9399 6.86963C42.9799 7.12963 42.8699 7.86963 42.8999 7.91963C42.9199 7.94963 43.1699 7.77963 43.1999 7.81963C43.2899 7.94963 42.9999 8.81963 43.7999 8.11963L43.4999 8.51963C43.6599 8.35963 44.1799 8.44963 44.1999 8.41963C44.2299 8.38963 43.9899 7.52963 44.4999 8.11963C44.3799 6.86963 45.2899 7.74963 45.1099 6.71963C45.5299 7.43963 45.6399 6.26963 46.0199 6.01963C46.0799 5.97963 46.2499 6.22963 46.2699 6.21963C46.4299 6.14963 45.9999 6.09963 46.4199 5.91963C46.4299 5.91963 46.3699 6.18963 46.5199 6.11963C46.6999 6.02963 46.7699 5.42963 46.8599 5.30963C47.0799 5.03963 47.6299 5.30963 47.5299 4.51963L47.7299 4.91963C47.6399 4.56963 48.1499 4.57963 48.4299 4.31963C48.1999 4.49963 48.2099 4.12963 48.3799 4.11963C48.4699 4.11963 48.4399 4.30963 48.4299 4.31963C48.5099 4.23963 48.7099 4.51963 48.5299 3.91963C49.0099 4.29963 48.9099 3.96963 48.7799 3.51963C49.1199 3.73963 48.7699 4.12963 49.2699 3.79963C49.7699 3.46963 49.0199 3.87963 49.1399 3.51963C49.5799 3.44963 49.8299 3.01963 50.1899 2.79963C50.3699 2.68963 50.6499 2.83963 50.7599 2.76963C50.8699 2.69963 50.8099 2.23963 50.8599 2.20963C50.8899 2.18963 51.1699 2.36963 51.2599 2.30963C51.2999 2.27963 51.1199 2.02963 51.1599 2.00963C51.4599 1.85963 51.6799 2.21963 51.7099 2.20963C51.8699 2.14963 51.7599 1.93963 51.7899 1.92963C52.3899 1.58963 52.6399 1.28963 53.2699 1.30963C52.7099 1.01963 54.0599 0.789631 54.3799 0.809631C53.8399 0.309631 54.6899 0.739631 54.7299 0.709631C54.8499 0.639631 54.6199 0.439631 54.6799 0.409631C54.8299 0.329631 54.7399 0.649631 54.8299 0.609631C54.9299 0.569631 54.9399 0.329631 55.0499 0.309631C55.3699 0.259631 55.7199 0.439631 55.8799 0.409631C55.8899 0.409631 55.7699 0.189631 55.8699 0.159631C56.6499 -0.100369 56.2499 0.399631 56.3299 0.409631C56.8799 0.509631 57.7199 0.319631 58.5299 0.509631C58.6499 0.539631 58.5799 0.809631 58.5999 0.819631C58.8199 0.959631 58.8099 0.599631 58.8499 0.609631C60.2599 1.08963 61.6699 2.00963 62.4499 3.32963C62.5099 3.42963 63.2699 5.09963 63.2899 5.19963C63.4199 5.79963 63.3899 8.86963 63.6099 9.12963C63.6399 9.16963 63.9699 9.08963 64.0099 9.12963C64.2299 9.30963 63.4999 9.59963 63.7999 9.85963C64.1599 10.1796 64.3199 9.82963 64.4099 9.52963C64.5399 9.98963 64.5599 10.2396 64.5099 10.7296C64.6299 10.2896 65.1399 9.10963 65.5099 9.52963C65.3099 9.12963 65.6599 8.90963 66.0099 8.72963C65.9899 8.76963 65.9599 9.06963 66.1099 9.02963L66.4099 8.57963C66.3099 8.57963 66.1099 8.67963 66.0099 8.72963C66.2199 8.19963 66.7799 8.35963 66.8099 8.32963C66.8599 8.27963 66.7599 7.78963 66.8099 7.63963C66.8299 7.58963 67.7899 7.38963 67.5099 6.92963C67.6499 7.42963 68.0899 6.51963 68.0099 6.22963L68.4099 6.52963C68.2299 5.61963 68.7699 6.15963 68.8099 6.12963C68.8299 6.11963 68.7999 5.85963 68.9099 5.76963C69.1199 5.61963 69.2999 5.73963 69.3099 5.71963C69.3299 5.69963 69.1799 5.20963 69.3099 5.11963C69.3699 5.07963 70.4799 5.16963 70.4199 4.31963C70.8199 4.79963 71.6499 3.56963 71.7299 3.51963C71.8099 3.46963 73.1999 2.80963 73.3499 2.73963C73.5099 2.66963 74.4499 2.57963 74.6799 2.50963C74.8099 2.46963 74.7099 2.20963 74.7399 2.19963C74.8899 2.14963 74.7799 2.52963 75.0899 2.39963C75.2799 2.31963 75.1299 2.10963 75.1399 2.09963C75.2299 2.06963 75.9599 2.22963 76.2899 2.19963C76.3599 2.19963 76.6899 1.90963 76.7999 1.89963C76.8799 1.89963 76.9099 2.16963 76.9999 2.16963C77.2899 2.16963 77.9699 1.95963 78.0499 1.99963C78.0699 1.99963 78.0099 2.25963 78.1199 2.29963C78.5299 2.43963 78.9599 2.59963 79.3699 2.72963C79.4399 2.74963 79.6999 2.59963 79.9899 2.68963C80.1699 2.74963 79.9899 3.32963 80.4699 2.88963C81.0199 3.94963 82.4799 3.87963 82.5799 5.39963L82.8799 5.09963C82.9399 5.34963 83.2099 6.53963 83.2799 6.69963C83.2899 6.72963 83.6599 6.66963 83.6799 6.69963C83.7599 6.79963 83.3799 8.04963 84.6299 7.90963C84.7299 7.89963 84.6799 7.70963 84.6799 7.68963C84.6299 7.73963 84.5499 7.73963 84.4999 7.68963C84.4499 7.63963 84.4499 7.55963 84.4999 7.51963C84.5499 7.47963 84.6299 7.46963 84.6799 7.51963C84.7299 7.56963 84.7299 7.64963 84.6799 7.68963C84.9799 7.58963 85.6299 7.22963 85.5999 6.89963L85.8499 7.19963L86.3999 6.08963C86.6099 7.01963 86.7599 6.02963 86.8999 5.88963C86.9499 5.83963 87.1199 6.02963 87.1899 5.93963C87.1899 5.92963 87.0499 5.73963 87.0899 5.68963C87.1099 5.65963 87.3599 5.68963 87.4499 5.58963C87.5099 5.50963 87.4499 4.77963 87.7999 5.07963C87.9199 5.18963 87.3299 5.60963 87.7999 5.42963C87.9499 4.77963 88.5799 5.07963 88.3999 4.26963C88.4399 5.20963 88.9299 4.41963 89.0999 3.96963L89.2499 4.16963L89.5999 3.46963C90.0499 3.99963 89.9599 3.18963 89.9999 3.16963C90.1599 3.05963 91.5299 2.48963 91.7999 2.20963C91.9699 2.03963 91.9799 1.78963 92.0099 1.56963C92.4199 1.48963 92.0599 1.90963 92.1599 1.96963C92.3099 2.05963 92.4599 1.54963 92.5099 1.46963C92.3599 1.89963 92.6899 1.46963 92.7099 1.46963L92.6499 1.42963ZM53.5599 1.02963H53.3599V1.12963H53.5599V1.02963ZM93.4999 1.02963V1.12963L93.5499 1.07963L93.4999 1.02963ZM135.8 1.12963V1.22963L135.85 1.17963L135.8 1.12963ZM34.6199 1.32963L34.4699 1.47963L34.5199 1.52963L34.6199 1.42963V1.32963ZM112.89 1.32963V1.42963L112.94 1.37963L112.89 1.32963ZM18.0799 2.12963H17.8799V2.22963H18.0799V2.12963ZM17.4299 2.22963V2.32963L17.4799 2.27963L17.4299 2.22963ZM32.1999 2.22963V2.32963L32.2499 2.27963L32.1999 2.22963ZM51.1399 2.32963C51.1399 2.32963 50.9299 2.28963 50.9399 2.37963C50.9199 2.57963 50.9599 2.56963 51.0899 2.42963C51.1299 2.40963 51.1599 2.35963 51.1399 2.32963ZM78.9799 2.62963H78.7799V2.72963H78.9799V2.62963ZM16.0199 2.72963V2.82963L16.0699 2.77963L16.0199 2.72963ZM50.2399 2.93963C50.0199 2.78963 49.8299 3.16963 49.8399 3.18963C49.8699 3.23963 50.2499 3.04963 50.2399 2.93963ZM14.5199 3.32963V3.42963L14.5699 3.37963L14.5199 3.32963ZM14.1199 3.43963L13.9699 3.58963L14.0199 3.63963L14.1199 3.53963V3.43963ZM14.3199 3.43963V3.53963L14.3699 3.48963L14.3199 3.43963ZM49.5899 3.43963V3.53963L49.6399 3.48963L49.5899 3.43963ZM13.4099 3.73963V3.83963L13.4599 3.78963L13.4099 3.73963ZM13.1099 3.93963V4.03963L13.1599 3.98963L13.1099 3.93963ZM129.82 4.33963H129.62V4.43963H129.82V4.33963ZM129.47 4.53963V4.63963L129.52 4.58963L129.47 4.53963ZM42.4999 5.83963C42.4999 5.83963 42.5099 5.54963 42.4999 5.53963C42.3699 5.35963 42.3799 6.01963 42.4999 5.83963ZM26.8799 6.13963V6.23963L26.9299 6.18963L26.8799 6.13963ZM68.4799 6.13963V6.23963L68.5299 6.18963L68.4799 6.13963ZM127.06 6.33963V6.43963L127.11 6.38963L127.06 6.33963ZM45.8699 6.43963V6.53963L45.9199 6.48963L45.8699 6.43963ZM86.1099 6.53963C86.1099 6.53963 86.0299 6.82963 86.0599 6.83963C86.1999 6.84963 86.2799 6.41963 86.1099 6.53963ZM106.31 6.83963V6.63963H106.21V6.83963H106.31ZM106.71 6.63963H106.51V6.73963H106.71V6.63963ZM26.0699 6.73963V6.83963L26.1199 6.78963L26.0699 6.73963ZM117.21 7.13963V7.23963L117.26 7.18963L117.21 7.13963ZM44.7599 7.43963V7.53963L44.8099 7.48963L44.7599 7.43963ZM85.5599 7.43963V7.53963L85.6099 7.48963L85.5599 7.43963ZM7.32989 7.54963C7.32989 7.54963 7.11989 7.50963 7.12989 7.59963C7.10989 7.79963 7.14989 7.78963 7.27989 7.64963C7.31989 7.62963 7.34989 7.57963 7.32989 7.54963ZM57.6799 7.83963C57.6799 7.83963 57.6199 7.72963 57.5799 7.68963C57.3399 7.52963 57.5199 8.02963 57.6799 7.83963ZM125.45 7.63963V7.73963L125.5 7.68963L125.45 7.63963ZM125.15 7.83963V7.93963L125.2 7.88963L125.15 7.83963ZM35.3199 7.94963V8.04963L35.3699 7.99963L35.3199 7.94963ZM42.8999 8.24963V8.04963H42.7999V8.24963H42.8999ZM125 8.24963V8.04963H124.9V8.24963H125ZM84.1999 8.24963H83.9999V8.34963H84.1999V8.24963ZM124.65 8.34963V8.44963L124.7 8.39963L124.65 8.34963ZM43.7599 8.54963V8.64963L43.8099 8.59963L43.7599 8.54963ZM5.77989 8.94963V9.04963L5.82989 8.99963L5.77989 8.94963ZM78.1199 8.94963V9.04963L78.1699 8.99963L78.1199 8.94963ZM36.5699 9.34963C36.5699 9.34963 36.5799 9.05963 36.5699 9.04963C36.4399 8.86963 36.4499 9.52963 36.5699 9.34963ZM65.6599 9.04963V9.14963L65.7099 9.09963L65.6599 9.04963ZM94.8099 9.04963V9.14963L94.8599 9.09963L94.8099 9.04963ZM65.2099 9.84963C65.2099 9.84963 65.2899 9.55963 65.2599 9.54963C65.1199 9.53963 65.0399 9.96963 65.2099 9.84963ZM17.8799 9.84963V9.64963H17.7799V9.84963H17.8799ZM78.4799 10.1496C78.4799 10.1496 78.4899 9.85963 78.4799 9.84963C78.3499 9.66963 78.3599 10.3296 78.4799 10.1496ZM2.60989 12.5496C2.60989 12.5496 2.76989 12.2196 2.75989 12.1496C2.58989 12.1796 2.39989 12.6696 2.60989 12.5496ZM1.95989 13.0596V13.1596L2.00989 13.1096L1.95989 13.0596ZM39.4899 16.1596V15.9596H39.3899V16.1596H39.4899ZM125.76 16.4596V16.5596L125.81 16.5096L125.76 16.4596ZM24.9699 16.5596V16.6596L25.0199 16.6096L24.9699 16.5596ZM45.8199 16.9596V16.7596H45.7199V16.9596H45.8199Z" fill="black"/>
<path d="M58.7799 12.2504C58.7799 12.2504 58.6899 12.1804 58.6799 12.1504C58.6799 12.1704 58.7599 12.2104 58.7799 12.2504Z" fill="black"/>
<path d="M1.09999 14.3601H0.999993C0.999993 14.3601 0.989993 14.2401 1.09999 14.2601V14.3601Z" fill="black"/>
<path d="M131.53 3.12982C131.33 3.02982 131.81 2.79982 131.83 2.82982C131.91 2.92982 131.69 3.20982 131.53 3.12982Z" fill="black"/>
<path d="M99.7799 10.9504C99.7799 10.9504 99.7099 10.5104 99.8799 10.5504C100.04 10.7304 99.8499 11.0404 99.7799 10.9504Z" fill="black"/>
<path d="M130.63 3.73C130.56 3.81 130.27 3.59 130.33 3.53C130.41 3.45 130.68 3.67 130.63 3.73Z" fill="black"/>
<path d="M126.11 7.03963C126.11 7.03963 125.91 7.07963 125.91 6.98963C125.91 6.81963 126.29 6.80963 126.11 7.03963Z" fill="black"/>
<path d="M73.15 2.62957C73.33 2.74957 72.67 2.75957 72.85 2.62957C72.86 2.61957 73.13 2.61957 73.15 2.62957Z" fill="black"/>
<path d="M72.75 2.93026C72.75 2.93026 72.55 2.97026 72.55 2.88026C72.55 2.71026 72.93 2.70026 72.75 2.93026Z" fill="black"/>
<path d="M4.72002 9.84961H4.52002V9.94961H4.72002V9.84961Z" fill="black"/>
<path d="M99.58 9.65039H99.48V9.85039H99.58V9.65039Z" fill="black"/>
<path d="M30.65 2.94043H30.45V3.04043H30.65V2.94043Z" fill="black"/>
<path d="M101.39 14.46H101.29V14.66H101.39V14.46Z" fill="black"/>
<path d="M6.23003 8.25H6.03003V8.35H6.23003V8.25Z" fill="black"/>
<path d="M133.44 1.92969H133.34V2.12969H133.44V1.92969Z" fill="black"/>
<path d="M76.2701 1.83008H76.0701V1.93008H76.2701V1.83008Z" fill="black"/>
<path d="M120.08 12.0596H119.98V12.2596H120.08V12.0596Z" fill="black"/>
<path d="M94.05 0.429688H93.95V0.629687H94.05V0.429688Z" fill="black"/>
<path d="M88.73 4.24023H88.53V4.34023H88.73V4.24023Z" fill="black"/>
<path d="M107.82 5.04004H107.72V5.24004H107.82V5.04004Z" fill="black"/>
<path d="M115.86 0.230469H115.76V0.430469H115.86V0.230469Z" fill="black"/>
<path d="M86.8701 5.44043L86.9201 5.49043L86.8701 5.54043V5.44043Z" fill="black"/>
<path d="M47.78 4.24023L47.83 4.29023L47.78 4.34023V4.24023Z" fill="black"/>
<path d="M124.95 7.44043L125 7.49043L124.95 7.54043V7.44043Z" fill="black"/>
<path d="M11.6001 4.24023L11.6501 4.29023L11.6001 4.34023V4.24023Z" fill="black"/>
<path d="M139.02 7.9502L139.07 8.0002L139.02 8.0502V7.9502Z" fill="black"/>
<path d="M48.28 3.63965L48.33 3.68965L48.28 3.73965V3.63965Z" fill="black"/>
<path d="M109.38 3.44043L109.43 3.49043L109.38 3.54043V3.44043Z" fill="black"/>
<path d="M57.3201 8.25L57.3701 8.3L57.3201 8.35V8.25Z" fill="black"/>
<path d="M34.51 8.9502L34.56 9.0002L34.51 9.0502V8.9502Z" fill="black"/>
<path d="M99.2301 8.9502V9.0502L99.1301 9.1502L99.0801 9.1002L99.2301 8.9502Z" fill="black"/>
<path d="M13.01 3.44043L13.06 3.49043L13.01 3.54043V3.44043Z" fill="black"/>
<path d="M4.87012 9.65039L4.92012 9.70039L4.87012 9.75039V9.65039Z" fill="black"/>
<path d="M131.99 2.83008L132.04 2.88008L131.99 2.93008V2.83008Z" fill="black"/>
<path d="M99.3301 9.75L99.3801 9.8L99.3301 9.85V9.75Z" fill="black"/>
<path d="M90.3799 2.83008L90.4299 2.88008L90.3799 2.93008V2.83008Z" fill="black"/>
<path d="M58.23 10.5498L58.28 10.5998L58.23 10.6498V10.5498Z" fill="black"/>
<path d="M133.09 2.12988L133.14 2.17988L133.09 2.22988V2.12988Z" fill="black"/>
<path d="M110.98 2.12988L111.03 2.17988L110.98 2.22988V2.12988Z" fill="black"/>
<path d="M99.73 11.3496L99.78 11.3996L99.73 11.4496V11.3496Z" fill="black"/>
<path d="M100.13 11.3496L100.18 11.3996L100.13 11.4496V11.3496Z" fill="black"/>
<path d="M91.3899 2.03027L91.4399 2.08027L91.3899 2.13027V2.03027Z" fill="black"/>
<path d="M32.1001 1.83008L32.1501 1.88008L32.1001 1.93008V1.83008Z" fill="black"/>
<path d="M37.1299 12.1504L37.1799 12.2004L37.1299 12.2504V12.1504Z" fill="black"/>
<path d="M78.8301 12.1504L78.8801 12.2004L78.8301 12.2504V12.1504Z" fill="black"/>
<path d="M73.8999 12.25L73.9499 12.3L73.8999 12.36V12.25Z" fill="black"/>
<path d="M134.3 1.33008L134.35 1.38008L134.3 1.43008V1.33008Z" fill="black"/>
<path d="M18.6399 12.96L18.6899 13.01L18.6399 13.06V12.96Z" fill="black"/>
<path d="M93.2 1.03027L93.25 1.08027L93.2 1.13027V1.03027Z" fill="black"/>
<path d="M19.54 14.5596L19.59 14.6096L19.54 14.6596V14.5596Z" fill="black"/>
<path d="M0.649902 14.6602L0.699902 14.7102L0.649902 14.7602V14.6602Z" fill="black"/>
<path d="M0.449951 14.96L0.499951 15.01L0.449951 15.06V14.96Z" fill="black"/>
<path d="M52.8 1.03027L52.85 1.08027L52.8 1.13027V1.03027Z" fill="black"/>
<path d="M52.3 1.03027L52.35 1.08027L52.3 1.13027V1.03027Z" fill="black"/>
<path d="M34.6101 1.03027L34.6701 1.08027L34.6101 1.13027V1.03027Z" fill="black"/>
<path d="M41.3501 17.4697L41.4001 17.5197L41.3501 17.5697V17.4697Z" fill="black"/>
<path d="M41.8501 17.7695L41.9001 17.8195L41.8501 17.8695V17.7695Z" fill="black"/>
<path d="M42.1499 17.7695L42.1999 17.8195L42.1499 17.8695V17.7695Z" fill="black"/>
<path d="M137.41 0.230469L137.46 0.280469L137.41 0.330469V0.230469Z" fill="black"/>
<path d="M1.05005 18.5703L1.10005 18.6203L1.05005 18.6703V18.5703Z" fill="black"/>
<path d="M44.26 7.44043L44.31 7.49043L44.26 7.54043V7.44043Z" fill="black"/>
</g>
<defs>
<clipPath id="clip0_2970_782">
<rect width="143.89" height="19.48" fill="white"/>
</clipPath>
</defs>
</svg>
